<svg width="44" height="32" viewBox="0 0 44 32" fill="none" xmlns="http://www.w3.org/2000/svg">
<path d="M7.33398 16.6666H3.33398V15.3333H7.33398V11.3333H8.66732V15.3333H12.6673V16.6666H8.66732V20.6666H7.33398V16.6666Z" fill="#000EF8"/>
<path d="M25.179 20H24.2557L26.9261 12.7273H27.8352L30.5057 20H29.5824L27.4091 13.8778H27.3523L25.179 20ZM25.5199 17.1591H29.2415V17.9403H25.5199V17.1591ZM33.5845 20.1136C33.13 20.1136 32.7287 19.9988 32.3807 19.7692C32.0327 19.5372 31.7604 19.2105 31.5639 18.7891C31.3674 18.3653 31.2692 17.8646 31.2692 17.2869C31.2692 16.714 31.3674 16.2169 31.5639 15.7955C31.7604 15.3741 32.0339 15.0485 32.3842 14.8189C32.7346 14.5893 33.1394 14.4744 33.5987 14.4744C33.9538 14.4744 34.2344 14.5336 34.4403 14.652C34.6487 14.768 34.8073 14.9006 34.9162 15.0497C35.0275 15.1965 35.1139 15.3172 35.1754 15.4119H35.2464V12.7273H36.0845V20H35.2749V19.1619H35.1754C35.1139 19.2614 35.0263 19.3868 34.9126 19.5384C34.799 19.6875 34.6368 19.8213 34.4261 19.9396C34.2154 20.0556 33.9349 20.1136 33.5845 20.1136ZM33.6982 19.3608C34.0343 19.3608 34.3184 19.2732 34.5504 19.098C34.7824 18.9205 34.9588 18.6754 35.0795 18.3629C35.2003 18.0481 35.2607 17.6847 35.2607 17.2727C35.2607 16.8655 35.2015 16.5092 35.0831 16.2038C34.9647 15.8961 34.7895 15.657 34.5575 15.4865C34.3255 15.3137 34.0391 15.2273 33.6982 15.2273C33.343 15.2273 33.0471 15.3184 32.8104 15.5007C32.576 15.6806 32.3996 15.9257 32.2812 16.2358C32.1652 16.5436 32.1072 16.8892 32.1072 17.2727C32.1072 17.661 32.1664 18.0137 32.2848 18.331C32.4055 18.6458 32.5831 18.8968 32.8175 19.0838C33.0542 19.2685 33.3478 19.3608 33.6982 19.3608ZM39.7955 20.1136C39.3409 20.1136 38.9396 19.9988 38.5916 19.7692C38.2436 19.5372 37.9714 19.2105 37.7749 18.7891C37.5784 18.3653 37.4801 17.8646 37.4801 17.2869C37.4801 16.714 37.5784 16.2169 37.7749 15.7955C37.9714 15.3741 38.2448 15.0485 38.5952 14.8189C38.9455 14.5893 39.3504 14.4744 39.8097 14.4744C40.1648 14.4744 40.4453 14.5336 40.6513 14.652C40.8596 14.768 41.0182 14.9006 41.1271 15.0497C41.2384 15.1965 41.3248 15.3172 41.3864 15.4119H41.4574V12.7273H42.2955V20H41.4858V19.1619H41.3864C41.3248 19.2614 41.2372 19.3868 41.1236 19.5384C41.0099 19.6875 40.8478 19.8213 40.6371 19.9396C40.4264 20.0556 40.1458 20.1136 39.7955 20.1136ZM39.9091 19.3608C40.2453 19.3608 40.5294 19.2732 40.7614 19.098C40.9934 18.9205 41.1697 18.6754 41.2905 18.3629C41.4112 18.0481 41.4716 17.6847 41.4716 17.2727C41.4716 16.8655 41.4124 16.5092 41.294 16.2038C41.1757 15.8961 41.0005 15.657 40.7685 15.4865C40.5365 15.3137 40.25 15.2273 39.9091 15.2273C39.554 15.2273 39.258 15.3184 39.0213 15.5007C38.7869 15.6806 38.6106 15.9257 38.4922 16.2358C38.3762 16.5436 38.3182 16.8892 38.3182 17.2727C38.3182 17.661 38.3774 18.0137 38.4957 18.331C38.6165 18.6458 38.794 18.8968 39.0284 19.0838C39.2652 19.2685 39.5587 19.3608 39.9091 19.3608Z" fill="#000EF8"/>
</svg>
