<svg width="40" height="44" viewBox="0 0 40 44" fill="none" xmlns="http://www.w3.org/2000/svg">
<circle cx="20" cy="24" r="20" fill="url(#paint0_linear_4783_994)"/>
<path d="M14.2555 23.8625L16.1355 24.4892C17.3782 24.9025 17.9982 25.1105 18.4435 25.5559C18.8888 26.0012 19.0968 26.6225 19.5102 27.8625L20.1368 29.7425C21.1822 32.8812 21.7048 34.4492 22.6662 34.4492C23.6262 34.4492 24.1502 32.8812 25.1955 29.7425L28.9795 18.3932C29.7155 16.1852 30.0835 15.0812 29.5008 14.4985C28.9182 13.9159 27.8142 14.2839 25.6075 15.0185L14.2542 18.8052C11.1195 19.8492 9.54883 20.3719 9.54883 21.3332C9.54883 22.2932 11.1182 22.8172 14.2555 23.8625Z" fill="white"/>
<path d="M14.2555 23.8625L16.1355 24.4892C17.3782 24.9025 17.9982 25.1105 18.4435 25.5559C18.8888 26.0012 19.0968 26.6225 19.5102 27.8625L20.1368 29.7425C21.1822 32.8812 21.7048 34.4492 22.6662 34.4492C23.6262 34.4492 24.1502 32.8812 25.1955 29.7425L28.9795 18.3932C29.7155 16.1852 30.0835 15.0812 29.5008 14.4985C28.9182 13.9159 27.8142 14.2839 25.6075 15.0185L14.2542 18.8052C11.1195 19.8492 9.54883 20.3719 9.54883 21.3332C9.54883 22.2932 11.1182 22.8172 14.2555 23.8625Z" fill="#000EF8"/>
<path d="M16.7031 26.4561L13.9538 25.5401C13.7614 25.476 13.557 25.4566 13.3559 25.4834C13.1549 25.5102 12.9627 25.5825 12.7938 25.6948L11.3405 26.6628C11.1684 26.7774 11.0334 26.9395 10.9518 27.1295C10.8702 27.3194 10.8456 27.529 10.8809 27.7327C10.9162 27.9364 11.01 28.1254 11.1507 28.2768C11.2915 28.4282 11.4732 28.5354 11.6738 28.5854L14.2805 29.2361C14.3978 29.2654 14.5049 29.326 14.5904 29.4115C14.6759 29.497 14.7365 29.6041 14.7658 29.7214L15.4165 32.3281C15.4665 32.5287 15.5737 32.7104 15.7251 32.8512C15.8765 32.992 16.0656 33.0857 16.2692 33.121C16.4729 33.1563 16.6825 33.1317 16.8724 33.0501C17.0624 32.9685 17.2245 32.8335 17.3391 32.6614L18.3071 31.2081C18.4194 31.0392 18.4917 30.847 18.5185 30.646C18.5453 30.445 18.5259 30.2405 18.4618 30.0481L17.5458 27.2988C17.4803 27.1026 17.3701 26.9243 17.2239 26.7781C17.0776 26.6318 16.8993 26.5216 16.7031 26.4561Z" fill="#AC00E6"/>
<defs>
<linearGradient id="paint0_linear_4783_994" x1="5" y1="10.25" x2="33.75" y2="39.625" gradientUnits="userSpaceOnUse">
<stop stop-color="#D9DBFF"/>
<stop offset="1" stop-color="#EBACFF"/>
</linearGradient>
</defs>
</svg>
