<svg width="33" height="32" viewBox="0 0 33 32" fill="none" xmlns="http://www.w3.org/2000/svg">
<circle cx="16.5" cy="16" r="16" fill="#FAFAFA"/>
<path d="M15.059 17.885C14.931 17.885 14.825 17.843 14.741 17.759C14.657 17.6757 14.615 17.57 14.615 17.442V14.558C14.615 14.43 14.6567 14.3243 14.74 14.241C14.8233 14.1577 14.929 14.1157 15.057 14.115C15.1843 14.115 15.29 14.157 15.374 14.241C15.458 14.3243 15.5 14.43 15.5 14.558V17.442C15.5 17.57 15.4583 17.6757 15.375 17.759C15.2917 17.843 15.1863 17.885 15.059 17.885ZM17.001 17.885C16.8737 17.885 16.768 17.843 16.684 17.759C16.6 17.6757 16.558 17.57 16.558 17.442V15.558C16.558 15.43 16.5997 15.3243 16.683 15.241C16.7663 15.157 16.8717 15.115 16.999 15.115C17.1263 15.115 17.232 15.157 17.316 15.241C17.4 15.3243 17.442 15.43 17.442 15.558V17.442C17.442 17.57 17.4003 17.6757 17.317 17.759C17.2337 17.843 17.1283 17.885 17.001 17.885ZM18.943 17.885C18.8157 17.885 18.71 17.843 18.626 17.759C18.542 17.6757 18.5 17.57 18.5 17.442V16.558C18.5 16.43 18.5417 16.3243 18.625 16.241C18.7083 16.157 18.8137 16.115 18.941 16.115C19.069 16.115 19.175 16.157 19.259 16.241C19.343 16.3243 19.385 16.43 19.385 16.558V17.442C19.385 17.57 19.3433 17.6757 19.26 17.759C19.1767 17.8423 19.071 17.8843 18.943 17.885ZM15.519 24.192C15.2937 24.192 15.0877 24.124 14.901 23.988C14.7143 23.8513 14.5863 23.6687 14.517 23.44L13.842 21.065C13.004 20.573 12.3207 19.8777 11.792 18.979C11.2633 18.0803 10.9993 17.0873 11 16C11 14.9133 11.264 13.9203 11.792 13.021C12.32 12.1217 13.0033 11.4263 13.842 10.935L14.517 8.56001C14.5863 8.33135 14.7143 8.14868 14.901 8.01201C15.0877 7.87601 15.2937 7.80801 15.519 7.80801H18.481C18.7063 7.80801 18.9123 7.87601 19.099 8.01201C19.2857 8.14868 19.4137 8.33135 19.483 8.56001L20.158 10.935C20.996 11.427 21.6793 12.1223 22.208 13.021C22.7367 13.9197 23.0007 14.9127 23 16C23 17.0867 22.736 18.0797 22.208 18.979C21.68 19.8783 20.9967 20.5737 20.158 21.065L19.483 23.44C19.4137 23.6687 19.2857 23.8513 19.099 23.988C18.9123 24.124 18.7063 24.192 18.481 24.192H15.519ZM17 21C18.3833 21 19.5627 20.5123 20.538 19.537C21.5133 18.5617 22.0007 17.3827 22 16C22 14.6167 21.5123 13.4377 20.537 12.463C19.5617 11.4883 18.3827 11.0007 17 11C15.6167 11 14.4377 11.4877 13.463 12.463C12.4883 13.4383 12.0007 14.6173 12 16C12 17.3833 12.4877 18.5627 13.463 19.538C14.4383 20.5133 15.6173 21.0007 17 21ZM15.062 10.327C15.408 10.2177 15.7373 10.135 16.05 10.079C16.362 10.0223 16.6787 9.99401 17 9.99401C17.3213 9.99401 17.638 10.0223 17.95 10.079C18.2633 10.135 18.5927 10.2177 18.938 10.327L18.5 8.80701H15.5L15.062 10.327ZM15.5 23.192H18.5L18.938 21.673C18.592 21.7823 18.2627 21.861 17.95 21.909C17.638 21.957 17.3213 21.981 17 21.981C16.6787 21.981 16.362 21.957 16.05 21.909C15.7367 21.861 15.4073 21.7823 15.062 21.673L15.5 23.192ZM15.5 23.192H15.062H18.938H15.5Z" fill="#000EF8"/>
</svg>
