<svg width="24" height="24" viewBox="0 0 24 24" fill="none" xmlns="http://www.w3.org/2000/svg">
<path d="M8.39961 6.00002V4.50002C8.39961 3.34082 9.34041 2.40002 10.4996 2.40002H13.4996C14.6588 2.40002 15.5996 3.34082 15.5996 4.50002V6.00002H17.3996C18.1953 6.00002 18.9583 6.31609 19.5209 6.8787C20.0835 7.44131 20.3996 8.20437 20.3996 9.00002V16.2C20.3996 16.9957 20.0835 17.7587 19.5209 18.3213C18.9583 18.884 18.1953 19.2 17.3996 19.2H6.59961C5.80396 19.2 5.0409 18.884 4.47829 18.3213C3.91568 17.7587 3.59961 16.9957 3.59961 16.2V9.00002C3.59961 8.20437 3.91568 7.44131 4.47829 6.8787C5.0409 6.31609 5.80396 6.00002 6.59961 6.00002H8.39961ZM9.59961 4.50002V6.00002H14.3996V4.50002C14.3996 4.26133 14.3048 4.03241 14.136 3.86363C13.9672 3.69485 13.7383 3.60002 13.4996 3.60002H10.4996C10.2609 3.60002 10.032 3.69485 9.86321 3.86363C9.69443 4.03241 9.59961 4.26133 9.59961 4.50002ZM6.59961 7.20002C6.12222 7.20002 5.66438 7.38967 5.32682 7.72723C4.98925 8.0648 4.79961 8.52263 4.79961 9.00002V10.2C4.79961 10.6774 4.98925 11.1353 5.32682 11.4728C5.66438 11.8104 6.12222 12 6.59961 12H10.7996V11.4C10.7996 11.2409 10.8628 11.0883 10.9753 10.9758C11.0879 10.8632 11.2405 10.8 11.3996 10.8H12.5996C12.7587 10.8 12.9114 10.8632 13.0239 10.9758C13.1364 11.0883 13.1996 11.2409 13.1996 11.4V12H17.3996C17.877 12 18.3348 11.8104 18.6724 11.4728C19.01 11.1353 19.1996 10.6774 19.1996 10.2V9.00002C19.1996 8.52263 19.01 8.0648 18.6724 7.72723C18.3348 7.38967 17.877 7.20002 17.3996 7.20002H6.59961ZM17.3996 13.2H13.1996V13.8C13.1996 13.9592 13.1364 14.1118 13.0239 14.2243C12.9114 14.3368 12.7587 14.4 12.5996 14.4H11.3996C11.2405 14.4 11.0879 14.3368 10.9753 14.2243C10.8628 14.1118 10.7996 13.9592 10.7996 13.8V13.2H6.59961C5.95036 13.2009 5.31849 12.9903 4.79961 12.6V16.2C4.79961 16.6774 4.98925 17.1353 5.32682 17.4728C5.66438 17.8104 6.12222 18 6.59961 18H17.3996C17.877 18 18.3348 17.8104 18.6724 17.4728C19.01 17.1353 19.1996 16.6774 19.1996 16.2V12.6C18.6807 12.9903 18.0489 13.2009 17.3996 13.2Z" fill="#000EF8"/>
</svg>
