<svg width="25" height="24" viewBox="0 0 25 24" fill="none" xmlns="http://www.w3.org/2000/svg">
<path d="M19.43 20C17.7447 20 16.0167 19.578 14.246 18.734C12.4753 17.8893 10.8307 16.7043 9.312 15.179C7.792 13.653 6.61 12.008 5.766 10.244C4.922 8.48 4.5 6.75533 4.5 5.07C4.5 4.76467 4.6 4.51033 4.8 4.307C5 4.10233 5.25 4 5.55 4H8.023C8.295 4 8.53233 4.08567 8.735 4.257C8.93767 4.42833 9.07467 4.64767 9.146 4.915L9.642 7.3C9.68867 7.58 9.68033 7.82433 9.617 8.033C9.55433 8.24167 9.44367 8.41267 9.285 8.546L7.09 10.592C7.50067 11.3373 7.95433 12.0293 8.451 12.668C8.94767 13.3073 9.47767 13.913 10.041 14.485C10.621 15.065 11.2457 15.605 11.915 16.105C12.5843 16.6043 13.319 17.0757 14.119 17.519L16.258 15.342C16.4207 15.1667 16.6037 15.051 16.807 14.995C17.0103 14.9397 17.235 14.9287 17.481 14.962L19.585 15.392C19.8563 15.4587 20.0767 15.5953 20.246 15.802C20.4153 16.0093 20.5 16.247 20.5 16.515V18.95C20.5 19.25 20.398 19.5 20.194 19.7C19.9907 19.9 19.7353 20 19.43 20ZM6.62 9.654L8.54 7.888C8.604 7.83733 8.64533 7.767 8.664 7.677C8.684 7.587 8.68067 7.50367 8.654 7.427L8.211 5.307C8.185 5.205 8.14 5.12833 8.076 5.077C8.012 5.02567 7.929 5 7.827 5H5.775C5.69833 5 5.63433 5.02567 5.583 5.077C5.53167 5.12833 5.506 5.19233 5.506 5.269C5.52533 5.95233 5.632 6.66567 5.826 7.409C6.02133 8.153 6.28533 8.90133 6.62 9.654ZM15.071 17.988C15.747 18.3227 16.467 18.5703 17.231 18.731C17.9963 18.891 18.663 18.9767 19.231 18.988C19.3077 18.988 19.3717 18.9627 19.423 18.912C19.4743 18.8607 19.5 18.7963 19.5 18.719V16.712C19.5 16.6093 19.4743 16.526 19.423 16.462C19.3717 16.3973 19.295 16.3523 19.193 16.327L17.343 15.948C17.2657 15.9227 17.198 15.9193 17.14 15.938C17.0827 15.958 17.022 15.9997 16.958 16.063L15.071 17.988Z" fill="black"/>
</svg>
