<svg width="56" height="18" viewBox="0 0 56 18" fill="none" xmlns="http://www.w3.org/2000/svg">
<rect x="0.5" y="0.5" width="55" height="17" rx="3.5" fill="#FCFCFC"/>
<rect x="0.5" y="0.5" width="55" height="17" rx="3.5" stroke="#FAFAFA"/>
<path fill-rule="evenodd" clip-rule="evenodd" d="M15.5 3.625H13.472C12.553 3.625 11.825 3.625 11.2555 3.7015C10.6695 3.7805 10.195 3.9465 9.8205 4.3205C9.4465 4.695 9.2805 5.1695 9.2015 5.7555C9.125 6.3255 9.125 7.053 9.125 7.972V11C9.12501 11.4467 9.28447 11.8787 9.57467 12.2184C9.86487 12.558 10.2668 12.7828 10.708 12.8525C10.7765 13.2345 10.909 13.5605 11.174 13.826C11.475 14.127 11.854 14.256 12.304 14.317C12.7375 14.375 13.289 14.375 13.9725 14.375H15.5275C16.211 14.375 16.7625 14.375 17.196 14.317C17.646 14.256 18.025 14.127 18.326 13.826C18.627 13.525 18.756 13.146 18.817 12.696C18.875 12.2625 18.875 11.711 18.875 11.0275V8.4725C18.875 7.789 18.875 7.2375 18.817 6.804C18.756 6.354 18.627 5.975 18.326 5.674C18.0605 5.409 17.7345 5.2765 17.3525 5.208C17.2828 4.76676 17.058 4.36487 16.7184 4.07467C16.3787 3.78447 15.9467 3.62501 15.5 3.625ZM16.565 5.1355C16.489 4.9135 16.3454 4.72083 16.1545 4.58446C15.9635 4.4481 15.7347 4.37486 15.5 4.375H13.5C12.5465 4.375 11.8695 4.376 11.355 4.445C10.8525 4.5125 10.5625 4.6395 10.351 4.851C10.1395 5.0625 10.0125 5.3525 9.945 5.8555C9.876 6.3695 9.875 7.0465 9.875 8V11C9.87486 11.2347 9.9481 11.4635 10.0845 11.6545C10.2208 11.8454 10.4135 11.989 10.6355 12.065C10.625 11.76 10.625 11.415 10.625 11.0275V8.4725C10.625 7.789 10.625 7.2375 10.6835 6.804C10.7435 6.354 10.8735 5.975 11.174 5.674C11.475 5.373 11.854 5.244 12.304 5.1835C12.7375 5.125 13.289 5.125 13.9725 5.125H15.5275C15.915 5.125 16.26 5.125 16.565 5.1355ZM11.704 6.205C11.8425 6.0665 12.0365 5.9765 12.404 5.927C12.781 5.8765 13.282 5.8755 13.9995 5.8755H15.4995C16.217 5.8755 16.7175 5.8765 17.0955 5.927C17.4625 5.9765 17.6565 6.067 17.795 6.205C17.9335 6.3435 18.0235 6.5375 18.073 6.905C18.1235 7.282 18.1245 7.783 18.1245 8.5005V11.0005C18.1245 11.718 18.1235 12.2185 18.073 12.5965C18.0235 12.9635 17.933 13.1575 17.795 13.296C17.6565 13.4345 17.4625 13.5245 17.095 13.574C16.7175 13.6245 16.217 13.6255 15.4995 13.6255H13.9995C13.282 13.6255 12.781 13.6245 12.4035 13.574C12.0365 13.5245 11.8425 13.434 11.704 13.296C11.5655 13.1575 11.4755 12.9635 11.426 12.596C11.3755 12.2185 11.3745 11.718 11.3745 11.0005V8.5005C11.3745 7.783 11.3755 7.282 11.426 6.9045C11.4755 6.5375 11.566 6.3435 11.704 6.205Z" fill="#828282"/>
<path d="M33.3864 8H32.6818C32.6402 7.79735 32.5672 7.61932 32.4631 7.46591C32.3608 7.3125 32.2358 7.18371 32.0881 7.07955C31.9422 6.97348 31.7803 6.89394 31.6023 6.84091C31.4242 6.78788 31.2386 6.76136 31.0455 6.76136C30.6932 6.76136 30.3741 6.85038 30.0881 7.02841C29.804 7.20644 29.5777 7.46875 29.4091 7.81534C29.2424 8.16193 29.1591 8.58712 29.1591 9.09091C29.1591 9.5947 29.2424 10.0199 29.4091 10.3665C29.5777 10.7131 29.804 10.9754 30.0881 11.1534C30.3741 11.3314 30.6932 11.4205 31.0455 11.4205C31.2386 11.4205 31.4242 11.3939 31.6023 11.3409C31.7803 11.2879 31.9422 11.2093 32.0881 11.1051C32.2358 10.9991 32.3608 10.8693 32.4631 10.7159C32.5672 10.5606 32.6402 10.3826 32.6818 10.1818H33.3864C33.3333 10.4792 33.2367 10.7453 33.0966 10.9801C32.9564 11.215 32.7822 11.4148 32.5739 11.5795C32.3655 11.7424 32.1316 11.8665 31.8722 11.9517C31.6146 12.0369 31.339 12.0795 31.0455 12.0795C30.5492 12.0795 30.108 11.9583 29.7216 11.7159C29.3352 11.4735 29.0313 11.1288 28.8097 10.6818C28.5881 10.2348 28.4773 9.70455 28.4773 9.09091C28.4773 8.47727 28.5881 7.94697 28.8097 7.5C29.0313 7.05303 29.3352 6.70833 29.7216 6.46591C30.108 6.22348 30.5492 6.10227 31.0455 6.10227C31.339 6.10227 31.6146 6.14489 31.8722 6.23011C32.1316 6.31534 32.3655 6.44034 32.5739 6.60511C32.7822 6.76799 32.9564 6.96686 33.0966 7.2017C33.2367 7.43466 33.3333 7.70076 33.3864 8ZM36.2067 12.0909C35.8127 12.0909 35.4671 11.9972 35.1697 11.8097C34.8743 11.6222 34.6432 11.3598 34.4766 11.0227C34.3118 10.6856 34.2294 10.2917 34.2294 9.84091C34.2294 9.38636 34.3118 8.98958 34.4766 8.65057C34.6432 8.31155 34.8743 8.0483 35.1697 7.8608C35.4671 7.6733 35.8127 7.57955 36.2067 7.57955C36.6006 7.57955 36.9453 7.6733 37.2408 7.8608C37.5381 8.0483 37.7692 8.31155 37.9339 8.65057C38.1006 8.98958 38.1839 9.38636 38.1839 9.84091C38.1839 10.2917 38.1006 10.6856 37.9339 11.0227C37.7692 11.3598 37.5381 11.6222 37.2408 11.8097C36.9453 11.9972 36.6006 12.0909 36.2067 12.0909ZM36.2067 11.4886C36.5059 11.4886 36.7521 11.4119 36.9453 11.2585C37.1385 11.1051 37.2815 10.9034 37.3743 10.6534C37.4671 10.4034 37.5135 10.1326 37.5135 9.84091C37.5135 9.54924 37.4671 9.27746 37.3743 9.02557C37.2815 8.77367 37.1385 8.57008 36.9453 8.41477C36.7521 8.25947 36.5059 8.18182 36.2067 8.18182C35.9074 8.18182 35.6612 8.25947 35.468 8.41477C35.2749 8.57008 35.1319 8.77367 35.0391 9.02557C34.9463 9.27746 34.8999 9.54924 34.8999 9.84091C34.8999 10.1326 34.9463 10.4034 35.0391 10.6534C35.1319 10.9034 35.2749 11.1051 35.468 11.2585C35.6612 11.4119 35.9074 11.4886 36.2067 11.4886ZM39.2074 13.6364V7.63636H39.8551V8.32955H39.9347C39.9839 8.25379 40.0521 8.1572 40.1392 8.03977C40.2282 7.92045 40.3551 7.81439 40.5199 7.72159C40.6866 7.62689 40.9119 7.57955 41.196 7.57955C41.5634 7.57955 41.8873 7.6714 42.1676 7.85511C42.4479 8.03883 42.6667 8.29924 42.8239 8.63636C42.9811 8.97348 43.0597 9.37121 43.0597 9.82955C43.0597 10.2917 42.9811 10.6922 42.8239 11.0312C42.6667 11.3684 42.4489 11.6297 42.1705 11.8153C41.892 11.9991 41.571 12.0909 41.2074 12.0909C40.9271 12.0909 40.7027 12.0445 40.5341 11.9517C40.3655 11.857 40.2358 11.75 40.1449 11.6307C40.054 11.5095 39.9839 11.4091 39.9347 11.3295H39.8778V13.6364H39.2074ZM39.8665 9.81818C39.8665 10.1477 39.9148 10.4384 40.0114 10.6903C40.108 10.9403 40.2491 11.1364 40.4347 11.2784C40.6203 11.4186 40.8475 11.4886 41.1165 11.4886C41.3968 11.4886 41.6307 11.4148 41.8182 11.267C42.0076 11.1174 42.1496 10.9167 42.2443 10.6648C42.3409 10.411 42.3892 10.1288 42.3892 9.81818C42.3892 9.51136 42.3419 9.23485 42.2472 8.98864C42.1544 8.74053 42.0133 8.54451 41.8239 8.40057C41.6364 8.25473 41.4006 8.18182 41.1165 8.18182C40.8438 8.18182 40.6146 8.25095 40.429 8.3892C40.2434 8.52557 40.1032 8.71686 40.0085 8.96307C39.9138 9.20739 39.8665 9.49242 39.8665 9.81818ZM44.358 13.6364C44.2443 13.6364 44.143 13.6269 44.054 13.608C43.965 13.5909 43.9034 13.5739 43.8693 13.5568L44.0398 12.9659C44.2027 13.0076 44.3466 13.0227 44.4716 13.0114C44.5966 13 44.7074 12.9441 44.804 12.8438C44.9025 12.7453 44.9924 12.5852 45.0739 12.3636L45.1989 12.0227L43.5852 7.63636H44.3125L45.517 11.1136H45.5625L46.767 7.63636H47.4943L45.642 12.6364C45.5587 12.8617 45.4555 13.0483 45.3324 13.196C45.2093 13.3456 45.0663 13.4564 44.9034 13.5284C44.7424 13.6004 44.5606 13.6364 44.358 13.6364Z" fill="#828282"/>
</svg>
