<svg width="20" height="20" viewBox="0 0 20 20" fill="none" xmlns="http://www.w3.org/2000/svg">
<path d="M8.33464 4.16667H11.668C11.668 3.72464 11.4924 3.30072 11.1798 2.98816C10.8673 2.67559 10.4433 2.5 10.0013 2.5C9.55927 2.5 9.13535 2.67559 8.82279 2.98816C8.51023 3.30072 8.33464 3.72464 8.33464 4.16667ZM7.08464 4.16667C7.08464 3.78364 7.16008 3.40437 7.30665 3.05051C7.45323 2.69664 7.66807 2.37511 7.93891 2.10427C8.20974 1.83343 8.53128 1.61859 8.88514 1.47202C9.23901 1.32544 9.61828 1.25 10.0013 1.25C10.3843 1.25 10.7636 1.32544 11.1175 1.47202C11.4713 1.61859 11.7929 1.83343 12.0637 2.10427C12.3345 2.37511 12.5494 2.69664 12.696 3.05051C12.8425 3.40437 12.918 3.78364 12.918 4.16667H17.7096C17.8754 4.16667 18.0344 4.23251 18.1516 4.34973C18.2688 4.46694 18.3346 4.62591 18.3346 4.79167C18.3346 4.95743 18.2688 5.1164 18.1516 5.23361C18.0344 5.35082 17.8754 5.41667 17.7096 5.41667H16.6096L15.6346 15.5092C15.5598 16.2825 15.1997 17.0002 14.6244 17.5224C14.0491 18.0445 13.2999 18.3336 12.523 18.3333H7.47964C6.70286 18.3334 5.95389 18.0442 5.37876 17.5221C4.80363 16.9999 4.44358 16.2823 4.3688 15.5092L3.39297 5.41667H2.29297C2.12721 5.41667 1.96824 5.35082 1.85103 5.23361C1.73382 5.1164 1.66797 4.95743 1.66797 4.79167C1.66797 4.62591 1.73382 4.46694 1.85103 4.34973C1.96824 4.23251 2.12721 4.16667 2.29297 4.16667H7.08464ZM8.7513 8.125C8.7513 7.95924 8.68545 7.80027 8.56824 7.68306C8.45103 7.56585 8.29206 7.5 8.1263 7.5C7.96054 7.5 7.80157 7.56585 7.68436 7.68306C7.56715 7.80027 7.5013 7.95924 7.5013 8.125V14.375C7.5013 14.5408 7.56715 14.6997 7.68436 14.8169C7.80157 14.9342 7.96054 15 8.1263 15C8.29206 15 8.45103 14.9342 8.56824 14.8169C8.68545 14.6997 8.7513 14.5408 8.7513 14.375V8.125ZM11.8763 7.5C12.0421 7.5 12.201 7.56585 12.3182 7.68306C12.4355 7.80027 12.5013 7.95924 12.5013 8.125V14.375C12.5013 14.5408 12.4355 14.6997 12.3182 14.8169C12.201 14.9342 12.0421 15 11.8763 15C11.7105 15 11.5516 14.9342 11.4344 14.8169C11.3172 14.6997 11.2513 14.5408 11.2513 14.375V8.125C11.2513 7.95924 11.3172 7.80027 11.4344 7.68306C11.5516 7.56585 11.7105 7.5 11.8763 7.5ZM5.61297 15.3892C5.65792 15.853 5.87401 16.2835 6.21911 16.5968C6.56421 16.91 7.01359 17.0834 7.47964 17.0833H12.523C12.989 17.0834 13.4384 16.91 13.7835 16.5968C14.1286 16.2835 14.3447 15.853 14.3896 15.3892L15.3546 5.41667H4.64797L5.61297 15.3892Z" fill="black"/>
</svg>
