<svg width="16" height="16" viewBox="0 0 16 16" fill="none" xmlns="http://www.w3.org/2000/svg">
<path d="M2.75 6.5C2.52019 6.5 2.29262 6.54526 2.0803 6.63321C1.86798 6.72116 1.67507 6.85006 1.51256 7.01256C1.35006 7.17507 1.22116 7.36798 1.13321 7.5803C1.04527 7.79262 1 8.02019 1 8.25C1 8.47981 1.04527 8.70738 1.13321 8.9197C1.22116 9.13202 1.35006 9.32493 1.51256 9.48744C1.67507 9.64994 1.86798 9.77884 2.0803 9.86679C2.29262 9.95473 2.52019 10 2.75 10C3.21413 10 3.65925 9.81563 3.98744 9.48744C4.31563 9.15925 4.5 8.71413 4.5 8.25C4.5 7.78587 4.31563 7.34075 3.98744 7.01256C3.65925 6.68437 3.21413 6.5 2.75 6.5ZM2.75 7.5C2.94891 7.5 3.13968 7.57902 3.28033 7.71967C3.42098 7.86032 3.5 8.05109 3.5 8.25C3.5 8.44891 3.42098 8.63968 3.28033 8.78033C3.13968 8.92098 2.94891 9 2.75 9C2.55109 9 2.36032 8.92098 2.21967 8.78033C2.07902 8.63968 2 8.44891 2 8.25C2 8.05109 2.07902 7.86032 2.21967 7.71967C2.36032 7.57902 2.55109 7.5 2.75 7.5ZM8 6.5C8.22981 6.5 8.45738 6.54526 8.6697 6.63321C8.88202 6.72116 9.07493 6.85006 9.23744 7.01256C9.39994 7.17507 9.52884 7.36798 9.61679 7.5803C9.70473 7.79262 9.75 8.02019 9.75 8.25C9.75 8.47981 9.70473 8.70738 9.61679 8.9197C9.52884 9.13202 9.39994 9.32493 9.23744 9.48744C9.07493 9.64994 8.88202 9.77884 8.6697 9.86679C8.45738 9.95473 8.22981 10 8 10C7.53587 10 7.09075 9.81563 6.76256 9.48744C6.43437 9.15925 6.25 8.71413 6.25 8.25C6.25 7.78587 6.43437 7.34075 6.76256 7.01256C7.09075 6.68437 7.53587 6.5 8 6.5ZM8 7.5C7.80109 7.5 7.61032 7.57902 7.46967 7.71967C7.32902 7.86032 7.25 8.05109 7.25 8.25C7.25 8.44891 7.32902 8.63968 7.46967 8.78033C7.61032 8.92098 7.80109 9 8 9C8.19891 9 8.38968 8.92098 8.53033 8.78033C8.67098 8.63968 8.75 8.44891 8.75 8.25C8.75 8.05109 8.67098 7.86032 8.53033 7.71967C8.38968 7.57902 8.19891 7.5 8 7.5ZM13.25 6.5C13.4798 6.5 13.7074 6.54526 13.9197 6.63321C14.132 6.72116 14.3249 6.85006 14.4874 7.01256C14.6499 7.17507 14.7788 7.36798 14.8668 7.5803C14.9547 7.79262 15 8.02019 15 8.25C15 8.47981 14.9547 8.70738 14.8668 8.9197C14.7788 9.13202 14.6499 9.32493 14.4874 9.48744C14.3249 9.64994 14.132 9.77884 13.9197 9.86679C13.7074 9.95473 13.4798 10 13.25 10C12.7859 10 12.3408 9.81563 12.0126 9.48744C11.6844 9.15925 11.5 8.71413 11.5 8.25C11.5 7.78587 11.6844 7.34075 12.0126 7.01256C12.3408 6.68437 12.7859 6.5 13.25 6.5ZM13.25 7.5C13.0511 7.5 12.8603 7.57902 12.7197 7.71967C12.579 7.86032 12.5 8.05109 12.5 8.25C12.5 8.44891 12.579 8.63968 12.7197 8.78033C12.8603 8.92098 13.0511 9 13.25 9C13.4489 9 13.6397 8.92098 13.7803 8.78033C13.921 8.63968 14 8.44891 14 8.25C14 8.05109 13.921 7.86032 13.7803 7.71967C13.6397 7.57902 13.4489 7.5 13.25 7.5Z" fill="#7D7D7D"/>
</svg>
