<svg width="20" height="20" viewBox="0 0 20 20" fill="none" xmlns="http://www.w3.org/2000/svg">
<path d="M5 7L8.75 10C9.10472 10.284 9.54559 10.4388 10 10.4388C10.4544 10.4388 10.8953 10.284 11.25 10L15 7M19 15V5C19 4.46957 18.7893 3.96086 18.4142 3.58579C18.0391 3.21071 17.5304 3 17 3H3C2.46957 3 1.96086 3.21071 1.58579 3.58579C1.21071 3.96086 1 4.46957 1 5V15C1 15.5304 1.21071 16.0391 1.58579 16.4142C1.96086 16.7893 2.46957 17 3 17H17C17.5304 17 18.0391 16.7893 18.4142 16.4142C18.7893 16.0391 19 15.5304 19 15Z" stroke="#000EF8" stroke-width="1.4" stroke-linecap="round" stroke-linejoin="round"/>
</svg>
