<svg width="20" height="20" viewBox="0 0 20 20" fill="none" xmlns="http://www.w3.org/2000/svg">
<path d="M9.743 3.07111C9.82065 3.02458 9.90948 3 10 3C10.0905 3 10.1793 3.02458 10.257 3.07111L17.029 7.1341C17.3253 7.31189 17.5705 7.5634 17.7407 7.86414C17.9108 8.16487 18.0002 8.50456 18 8.85011V15.5001C18 16.1631 17.7366 16.799 17.2678 17.2679C16.7989 17.7367 16.163 18.0001 15.5 18.0001H4.5C3.83696 18.0001 3.20107 17.7367 2.73223 17.2679C2.26339 16.799 2 16.1631 2 15.5001V8.85011C1.99982 8.50456 2.08918 8.16487 2.25935 7.86414C2.42952 7.5634 2.6747 7.31189 2.971 7.1341L9.743 3.07111ZM10 4.08311L3.486 7.99211L3.472 8.0001L10 11.9171L16.528 8.0001L16.515 7.99211L10 4.08311ZM17 8.88311L10.257 12.9291C10.1793 12.9756 10.0905 13.0002 10 13.0002C9.90948 13.0002 9.82065 12.9756 9.743 12.9291L3 8.88311V15.5001C3 15.8979 3.15804 16.2795 3.43934 16.5608C3.72064 16.8421 4.10218 17.0001 4.5 17.0001H15.5C15.8978 17.0001 16.2794 16.8421 16.5607 16.5608C16.842 16.2795 17 15.8979 17 15.5001V8.88311Z" fill="black"/>
</svg>
