<svg width="20" height="20" viewBox="0 0 20 20" fill="none" xmlns="http://www.w3.org/2000/svg">
<g clip-path="url(#clip0_716_27934)">
<path d="M18.3337 6.52489C18.6434 6.41534 18.9285 6.24587 19.1727 6.02615C19.4169 5.80642 19.6154 5.54075 19.7569 5.2443C19.8985 4.94785 19.9802 4.62643 19.9975 4.29838C20.0148 3.97033 19.9674 3.64209 19.8578 3.33239C19.7483 3.02269 19.5788 2.73759 19.3591 2.49339C19.1394 2.24918 18.8737 2.05065 18.5772 1.90911C18.2808 1.76758 17.9594 1.68583 17.6313 1.66852C17.3033 1.6512 16.975 1.69868 16.6653 1.80822C16.0399 2.02945 15.5279 2.49009 15.2421 3.0888C14.9562 3.68751 14.9199 4.37525 15.1412 5.00072C15.3624 5.62619 15.823 6.13815 16.4217 6.42399C17.0205 6.70983 17.7082 6.74612 18.3337 6.52489ZM4.37533 3.33322H13.8437C13.7506 3.74305 13.727 4.16557 13.7737 4.58322H4.37533C4.00933 4.58323 3.65673 4.72086 3.3875 4.96879C3.11827 5.21671 2.95211 5.5568 2.92199 5.92155L2.91699 6.04155V6.39905L10.0003 10.1274L15.4087 7.27989C15.8733 7.59288 16.4025 7.79711 16.957 7.87739L10.2912 11.3857C10.2146 11.4261 10.1304 11.4502 10.0441 11.4563C9.95773 11.4625 9.87103 11.4507 9.78949 11.4216L9.70949 11.3866L2.91699 7.81155V13.9582C2.91701 14.3242 3.05463 14.6768 3.30256 14.946C3.55048 15.2153 3.89057 15.3814 4.25533 15.4116L4.37533 15.4166H15.6253C15.9914 15.4165 16.3442 15.2788 16.6134 15.0307C16.8827 14.7826 17.0487 14.4423 17.0787 14.0774L17.0837 13.9582V7.89405C17.5014 7.93984 17.9238 7.9159 18.3337 7.82322V13.9582C18.3337 14.65 18.069 15.3156 17.5939 15.8184C17.1188 16.3212 16.4693 16.6232 15.7787 16.6624L15.6253 16.6666H4.37533C3.68354 16.6666 3.01797 16.4019 2.51513 15.9268C2.0123 15.4517 1.71032 14.8022 1.67116 14.1116L1.66699 13.9582V6.04155C1.66695 5.34977 1.93162 4.6842 2.40672 4.18136C2.88182 3.67853 3.53132 3.37655 4.22199 3.33739L4.37533 3.33322Z" fill="black"/>
</g>
<defs>
<clipPath id="clip0_716_27934">
<rect width="20" height="20" fill="white"/>
</clipPath>
</defs>
</svg>
