<svg width="24" height="24" viewBox="0 0 24 24" fill="none" xmlns="http://www.w3.org/2000/svg">
<path d="M11.0453 20.3859C11.0149 20.5077 10.9448 20.6159 10.8459 20.6931C10.747 20.7704 10.6251 20.8125 10.4996 20.8125C10.4535 20.8124 10.4076 20.8067 10.3628 20.7956L7.36277 20.0456C7.3004 20.0297 7.24114 20.0034 7.18746 19.9678L4.93746 18.4678C4.8759 18.4268 4.82302 18.3741 4.78184 18.3127C4.74066 18.2512 4.71198 18.1823 4.69744 18.1098C4.66808 17.9633 4.6981 17.8112 4.78089 17.6869C4.86369 17.5626 4.99248 17.4762 5.13894 17.4469C5.21145 17.4323 5.28612 17.4322 5.35869 17.4465C5.43125 17.4608 5.50028 17.4893 5.56183 17.5303L7.73027 18.9759L10.6365 19.7025C10.7083 19.7205 10.7758 19.7524 10.8352 19.7965C10.8946 19.8406 10.9447 19.896 10.9827 19.9594C11.0206 20.0229 11.0457 20.0933 11.0564 20.1665C11.0672 20.2396 11.0634 20.3142 11.0453 20.3859ZM23.4887 11.3297C23.4349 11.4932 23.3492 11.6444 23.2365 11.7746C23.1239 11.9048 22.9865 12.0114 22.8325 12.0881L20.5825 13.2131L15.3971 18.3984C15.2916 18.5036 15.1486 18.5626 14.9996 18.5625C14.9535 18.5624 14.9075 18.5568 14.8628 18.5456L8.86277 17.0456C8.79535 17.0281 8.73177 16.9982 8.67527 16.9575L3.45902 13.2338L1.16871 12.0881C0.857449 11.9324 0.620769 11.6595 0.510714 11.3293C0.400659 10.9992 0.42624 10.6388 0.581832 10.3275L2.91152 5.66907C3.06721 5.35781 3.34015 5.12113 3.67031 5.01107C4.00048 4.90102 4.36084 4.9266 4.67214 5.08219L6.80589 6.14907L11.845 4.70907C11.9461 4.68015 12.0532 4.68015 12.1543 4.70907L17.1934 6.14907L19.3271 5.08219C19.6385 4.9266 19.9988 4.90102 20.329 5.01107C20.6591 5.12113 20.9321 5.35781 21.0878 5.66907L23.4175 10.3275C23.4949 10.4816 23.5411 10.6495 23.5533 10.8215C23.5655 10.9935 23.5436 11.1662 23.4887 11.3297ZM1.67214 11.0822L3.49839 12L5.99964 7.00125L4.16871 6.08813C4.1242 6.06602 4.07273 6.06249 4.02562 6.07832C3.97851 6.09414 3.9396 6.12801 3.91746 6.1725L1.58777 10.8309C1.56597 10.8753 1.5626 10.9266 1.57839 10.9734C1.58572 10.997 1.59783 11.0189 1.61396 11.0376C1.63009 11.0563 1.64989 11.0715 1.67214 11.0822ZM17.9059 14.2959L15.025 11.9888C13.2437 13.5244 10.9393 13.7513 9.04371 12.54C8.87786 12.4345 8.73781 12.2932 8.63391 12.1263C8.53001 11.9595 8.4649 11.7715 8.44339 11.5761C8.42189 11.3807 8.44453 11.183 8.50965 10.9976C8.57477 10.8122 8.68071 10.6437 8.81964 10.5047L13.1059 6.34594C13.1682 6.28581 13.2436 6.24089 13.3262 6.21469L11.9996 5.835L7.14246 7.21875L4.46777 12.5719L9.23965 15.9797L14.8271 17.3766L17.9059 14.2959ZM19.5634 12.6384L16.9018 7.3125H13.7275L9.61089 11.3063C9.59263 11.3254 9.57887 11.3484 9.57059 11.3735C9.56232 11.3987 9.55976 11.4253 9.56308 11.4516C9.56599 11.4802 9.57546 11.5078 9.59074 11.5322C9.60602 11.5565 9.62671 11.5771 9.65121 11.5922C10.8971 12.3881 12.8518 12.6113 14.6003 10.8497C14.6981 10.7515 14.8288 10.6928 14.9672 10.6851C15.1056 10.6773 15.242 10.7209 15.3503 10.8075L18.7084 13.5L19.5634 12.6384ZM22.4096 10.8309L20.0818 6.1725C20.0597 6.12801 20.0208 6.09414 19.9737 6.07832C19.9266 6.06249 19.8751 6.06602 19.8306 6.08813L18.0043 7.00125L20.5009 12L22.3271 11.0869C22.3494 11.0762 22.3692 11.061 22.3853 11.0423C22.4015 11.0235 22.4136 11.0017 22.4209 10.9781C22.4294 10.9542 22.4329 10.9289 22.4313 10.9036C22.4297 10.8783 22.423 10.8536 22.4115 10.8309H22.4096Z" fill="#000EF8"/>
</svg>
