<svg width="20" height="20" viewBox="0 0 20 20" fill="none" xmlns="http://www.w3.org/2000/svg">
<path d="M9.96937 16.6663C8.2766 16.6663 6.80132 16.1136 5.54354 15.008C4.28576 13.9025 3.55771 12.5108 3.35938 10.833H4.20187C4.42854 12.2663 5.0816 13.458 6.16104 14.408C7.24049 15.358 8.50993 15.833 9.96937 15.833C11.5944 15.833 12.9727 15.2672 14.1044 14.1355C15.236 13.0038 15.8022 11.6252 15.8027 9.99967C15.8033 8.37412 15.2372 6.99551 14.1044 5.86384C12.9716 4.73217 11.5933 4.16634 9.96937 4.16634C9.10715 4.16634 8.2966 4.34856 7.53771 4.71301C6.77882 5.07745 6.10937 5.57912 5.52937 6.21801H7.59687V7.05134H4.13604V3.58967H4.96937V5.57967C5.61382 4.87245 6.36882 4.32134 7.23438 3.92634C8.09993 3.53134 9.0116 3.33356 9.96937 3.33301C10.8933 3.33301 11.7594 3.5069 12.5677 3.85467C13.376 4.20245 14.0822 4.67829 14.686 5.28217C15.2899 5.88606 15.766 6.59245 16.1144 7.40134C16.4627 8.21023 16.6366 9.07634 16.636 9.99967C16.6355 10.923 16.4616 11.7891 16.1144 12.598C15.7672 13.4069 15.291 14.1133 14.686 14.7172C14.081 15.3211 13.3749 15.7969 12.5677 16.1447C11.7605 16.4925 10.8944 16.6663 9.96937 16.6663ZM12.6385 13.2113L9.60021 10.173V5.83301H10.4335V9.82634L13.2285 12.6213L12.6385 13.2113Z" fill="#AC00E6"/>
</svg>
