<svg width="24" height="24" viewBox="0 0 24 24" fill="none" xmlns="http://www.w3.org/2000/svg">
<path d="M2 14C2 10.229 2 8.343 3.172 7.172C4.343 6 6.229 6 10 6H14C17.771 6 19.657 6 20.828 7.172C22 8.343 22 10.229 22 14C22 17.771 22 19.657 20.828 20.828C19.657 22 17.771 22 14 22H10C6.229 22 4.343 22 3.172 20.828C2 19.657 2 17.771 2 14Z" stroke="#000EF8" stroke-width="1.5"/>
<path d="M4.00028 7L3.98828 6C4.10028 5.069 4.33528 4.426 4.82528 3.937C5.76528 3 7.27928 3 10.3073 3H13.5183C16.5463 3 18.0593 3 19.0003 3.937C19.4903 4.426 19.7253 5.069 19.8373 6V7" stroke="#000EF8" stroke-width="1.5"/>
<path d="M17.5 12C18.3284 12 19 11.3284 19 10.5C19 9.67157 18.3284 9 17.5 9C16.6716 9 16 9.67157 16 10.5C16 11.3284 16.6716 12 17.5 12Z" stroke="#000EF8" stroke-width="1.5"/>
<path d="M2 14.5L3.752 12.967C4.19114 12.5831 4.75974 12.3804 5.34272 12.3998C5.9257 12.4193 6.47949 12.6596 6.892 13.072L11.182 17.362C11.5149 17.6949 11.9546 17.8996 12.4235 17.9402C12.8925 17.9808 13.3608 17.8547 13.746 17.584L14.045 17.374C14.6006 16.9838 15.2721 16.7936 15.9498 16.8345C16.6275 16.8753 17.2713 17.1449 17.776 17.599L21 20.5" stroke="#000EF8" stroke-width="1.5" stroke-linecap="round"/>
</svg>
