<svg width="24" height="24" viewBox="0 0 24 24" fill="none" xmlns="http://www.w3.org/2000/svg">
<path d="M8.39961 5.9999V4.4999C8.39961 3.3407 9.34041 2.3999 10.4996 2.3999H13.4996C14.6588 2.3999 15.5996 3.3407 15.5996 4.4999V5.9999H17.3996C18.1953 5.9999 18.9583 6.31597 19.5209 6.87858C20.0835 7.44119 20.3996 8.20425 20.3996 8.9999V16.1999C20.3996 16.9956 20.0835 17.7586 19.5209 18.3212C18.9583 18.8838 18.1953 19.1999 17.3996 19.1999H6.59961C5.80396 19.1999 5.0409 18.8838 4.47829 18.3212C3.91568 17.7586 3.59961 16.9956 3.59961 16.1999V8.9999C3.59961 8.20425 3.91568 7.44119 4.47829 6.87858C5.0409 6.31597 5.80396 5.9999 6.59961 5.9999H8.39961ZM9.59961 4.4999V5.9999H14.3996V4.4999C14.3996 4.26121 14.3048 4.03229 14.136 3.86351C13.9672 3.69472 13.7383 3.5999 13.4996 3.5999H10.4996C10.2609 3.5999 10.032 3.69472 9.86321 3.86351C9.69443 4.03229 9.59961 4.26121 9.59961 4.4999ZM6.59961 7.1999C6.12222 7.1999 5.66438 7.38954 5.32682 7.72711C4.98925 8.06467 4.79961 8.52251 4.79961 8.9999V10.1999C4.79961 10.6773 4.98925 11.1351 5.32682 11.4727C5.66438 11.8103 6.12222 11.9999 6.59961 11.9999H10.7996V11.3999C10.7996 11.2408 10.8628 11.0882 10.9753 10.9756C11.0879 10.8631 11.2405 10.7999 11.3996 10.7999H12.5996C12.7587 10.7999 12.9114 10.8631 13.0239 10.9756C13.1364 11.0882 13.1996 11.2408 13.1996 11.3999V11.9999H17.3996C17.877 11.9999 18.3348 11.8103 18.6724 11.4727C19.01 11.1351 19.1996 10.6773 19.1996 10.1999V8.9999C19.1996 8.52251 19.01 8.06467 18.6724 7.72711C18.3348 7.38954 17.877 7.1999 17.3996 7.1999H6.59961ZM17.3996 13.1999H13.1996V13.7999C13.1996 13.959 13.1364 14.1116 13.0239 14.2242C12.9114 14.3367 12.7587 14.3999 12.5996 14.3999H11.3996C11.2405 14.3999 11.0879 14.3367 10.9753 14.2242C10.8628 14.1116 10.7996 13.959 10.7996 13.7999V13.1999H6.59961C5.95036 13.2008 5.31849 12.9901 4.79961 12.5999V16.1999C4.79961 16.6773 4.98925 17.1351 5.32682 17.4727C5.66438 17.8103 6.12222 17.9999 6.59961 17.9999H17.3996C17.877 17.9999 18.3348 17.8103 18.6724 17.4727C19.01 17.1351 19.1996 16.6773 19.1996 16.1999V12.5999C18.6807 12.9901 18.0489 13.2008 17.3996 13.1999Z" fill="#AC00E6"/>
</svg>
