<svg width="40" height="40" viewBox="0 0 40 40" fill="none" xmlns="http://www.w3.org/2000/svg">
<circle cx="20" cy="20" r="19.5" fill="white" stroke="#FAFAFA"/>
<path d="M23.4375 20.9375L26.875 17.5M19.0625 18.4375L21.5625 20.9375M13.125 22.5L17.1875 18.4375" stroke="black" stroke-linecap="round" stroke-linejoin="round"/>
<path d="M27.8125 17.5C28.3303 17.5 28.75 17.0803 28.75 16.5625C28.75 16.0447 28.3303 15.625 27.8125 15.625C27.2947 15.625 26.875 16.0447 26.875 16.5625C26.875 17.0803 27.2947 17.5 27.8125 17.5Z" stroke="black" stroke-linecap="round" stroke-linejoin="round"/>
<path d="M22.5 22.8125C23.0178 22.8125 23.4375 22.3928 23.4375 21.875C23.4375 21.3572 23.0178 20.9375 22.5 20.9375C21.9822 20.9375 21.5625 21.3572 21.5625 21.875C21.5625 22.3928 21.9822 22.8125 22.5 22.8125Z" stroke="black" stroke-linecap="round" stroke-linejoin="round"/>
<path d="M18.125 18.4375C18.6428 18.4375 19.0625 18.0178 19.0625 17.5C19.0625 16.9822 18.6428 16.5625 18.125 16.5625C17.6072 16.5625 17.1875 16.9822 17.1875 17.5C17.1875 18.0178 17.6072 18.4375 18.125 18.4375Z" stroke="black" stroke-linecap="round" stroke-linejoin="round"/>
<path d="M12.1875 24.375C12.7053 24.375 13.125 23.9553 13.125 23.4375C13.125 22.9197 12.7053 22.5 12.1875 22.5C11.6697 22.5 11.25 22.9197 11.25 23.4375C11.25 23.9553 11.6697 24.375 12.1875 24.375Z" stroke="black" stroke-linecap="round" stroke-linejoin="round"/>
</svg>
