<svg width="20" height="20" viewBox="0 0 20 20" fill="none" xmlns="http://www.w3.org/2000/svg">
<path d="M10.0003 14.1665L10.8337 12.4998V8.21484C12.2678 7.84234 13.3337 6.54817 13.3337 4.99984C13.3337 3.1615 11.8387 1.6665 10.0003 1.6665C8.16199 1.6665 6.66699 3.1615 6.66699 4.99984C6.66699 6.54817 7.73283 7.84234 9.16699 8.21484V12.4998L10.0003 14.1665ZM8.33366 4.99984C8.33366 4.08067 9.08116 3.33317 10.0003 3.33317C10.9195 3.33317 11.667 4.08067 11.667 4.99984C11.667 5.919 10.9195 6.6665 10.0003 6.6665C9.08116 6.6665 8.33366 5.919 8.33366 4.99984Z" fill="#000EF8"/>
<path d="M13.5562 8.80259L13.112 10.4093C15.2712 11.0059 16.667 12.1534 16.667 13.3334C16.667 14.9101 13.9295 16.6668 10.0003 16.6668C6.07116 16.6668 3.33366 14.9101 3.33366 13.3334C3.33366 12.1534 4.72949 11.0059 6.88949 10.4084L6.44533 8.80176C3.49783 9.61676 1.66699 11.3526 1.66699 13.3334C1.66699 16.1368 5.32783 18.3334 10.0003 18.3334C14.6728 18.3334 18.3337 16.1368 18.3337 13.3334C18.3337 11.3526 16.5028 9.61676 13.5562 8.80259Z" fill="#000EF8"/>
</svg>
