<svg width="24" height="24" viewBox="0 0 24 24" fill="none" xmlns="http://www.w3.org/2000/svg">
<path d="M5.84341 4.56801C7.47635 2.93508 9.69109 2.0177 12.0004 2.0177C14.3097 2.0177 16.5245 2.93508 18.1574 4.56801C19.7903 6.20095 20.7077 8.41569 20.7077 10.725C20.7077 13.0343 19.7903 15.2491 18.1574 16.882L16.9704 18.056C16.0954 18.914 14.9604 20.018 13.5644 21.368C13.1448 21.7737 12.584 22.0005 12.0004 22.0005C11.4168 22.0005 10.856 21.7737 10.4364 21.368L6.94541 17.972C6.50541 17.541 6.13941 17.178 5.84341 16.882C5.03483 16.0735 4.39342 15.1136 3.95581 14.0572C3.5182 13.0008 3.29297 11.8685 3.29297 10.725C3.29297 9.58154 3.5182 8.44927 3.95581 7.39284C4.39342 6.33642 5.03483 5.37654 5.84341 4.56801ZM17.0964 5.62801C16.4271 4.95873 15.6324 4.42784 14.7579 4.06565C13.8834 3.70347 12.9461 3.51707 11.9996 3.51712C11.053 3.51717 10.1157 3.70365 9.24124 4.06592C8.36676 4.4282 7.57219 4.95917 6.90291 5.62851C6.23363 6.29786 5.70274 7.09248 5.34055 7.967C4.97836 8.84152 4.79197 9.77881 4.79202 10.7254C4.79206 11.6719 4.97855 12.6092 5.34082 13.4837C5.70309 14.3582 6.23406 15.1527 6.90341 15.822L8.39141 17.29C9.20941 18.091 10.2394 19.091 11.4794 20.29C11.6192 20.425 11.806 20.5005 12.0004 20.5005C12.1948 20.5005 12.3816 20.425 12.5214 20.29L15.9164 16.99C16.3864 16.529 16.7794 16.14 17.0964 15.822C18.4479 14.4704 19.2072 12.6374 19.2072 10.726C19.2072 8.81466 18.4479 6.98158 17.0964 5.63001M12.0004 7.99901C12.3946 7.99901 12.785 8.07666 13.1492 8.22753C13.5134 8.37839 13.8444 8.59952 14.1231 8.87828C14.4019 9.15704 14.623 9.48798 14.7739 9.8522C14.9248 10.2164 15.0024 10.6068 15.0024 11.001C15.0024 11.3952 14.9248 11.7856 14.7739 12.1498C14.623 12.514 14.4019 12.845 14.1231 13.1237C13.8444 13.4025 13.5134 13.6236 13.1492 13.7745C12.785 13.9254 12.3946 14.003 12.0004 14.003C11.2139 13.9887 10.4644 13.6661 9.91318 13.1048C9.36201 12.5435 9.0532 11.7882 9.0532 11.0015C9.0532 10.2148 9.36201 9.45957 9.91318 8.89824C10.4644 8.33691 11.2139 8.01437 12.0004 8.00001M12.0004 9.50001C11.6021 9.50001 11.22 9.65826 10.9383 9.93994C10.6567 10.2216 10.4984 10.6037 10.4984 11.002C10.4984 11.4004 10.6567 11.7824 10.9383 12.0641C11.22 12.3458 11.6021 12.504 12.0004 12.504C12.3919 12.4939 12.764 12.3313 13.0373 12.0508C13.3107 11.7703 13.4637 11.3942 13.4637 11.0025C13.4637 10.6109 13.3107 10.2347 13.0373 9.95423C12.764 9.67375 12.3919 9.51112 12.0004 9.50101" fill="#000EF8"/>
</svg>
