<svg width="20" height="20" viewBox="0 0 20 20" fill="none" xmlns="http://www.w3.org/2000/svg">
<path d="M9.99967 1.66666C7.70217 1.66666 5.83301 3.53582 5.83301 5.83332V7.49999H4.99967C4.08051 7.49999 3.33301 8.24749 3.33301 9.16666V16.6667C3.33301 17.5858 4.08051 18.3333 4.99967 18.3333H14.9997C15.9188 18.3333 16.6663 17.5858 16.6663 16.6667V9.16666C16.6663 8.24749 15.9188 7.49999 14.9997 7.49999H14.1663V5.83332C14.1663 3.53582 12.2972 1.66666 9.99967 1.66666ZM7.49967 5.83332C7.49967 4.45499 8.62134 3.33332 9.99967 3.33332C11.378 3.33332 12.4997 4.45499 12.4997 5.83332V7.49999H7.49967V5.83332ZM15.0013 16.6667H10.833V14.7683C11.3288 14.4792 11.6663 13.9475 11.6663 13.3333C11.6663 12.4142 10.9188 11.6667 9.99967 11.6667C9.08051 11.6667 8.33301 12.4142 8.33301 13.3333C8.33301 13.9467 8.67051 14.4792 9.16634 14.7683V16.6667H4.99967V9.16666H14.9997L15.0013 16.6667Z" fill="#000EF8"/>
</svg>
