<svg width="20" height="20" viewBox="0 0 20 20" fill="none" xmlns="http://www.w3.org/2000/svg">
<path d="M9.9987 2.70801C10.1645 2.70801 10.3234 2.77386 10.4406 2.89107C10.5578 3.00828 10.6237 3.16725 10.6237 3.33301C10.6237 3.49877 10.5578 3.65774 10.4406 3.77495C10.3234 3.89216 10.1645 3.95801 9.9987 3.95801C8.39635 3.95801 6.85963 4.59454 5.72659 5.72757C4.59356 6.8606 3.95703 8.39732 3.95703 9.99967C3.95703 11.602 4.59356 13.1387 5.72659 14.2718C6.85963 15.4048 8.39635 16.0413 9.9987 16.0413C10.1645 16.0413 10.3234 16.1072 10.4406 16.2244C10.5578 16.3416 10.6237 16.5006 10.6237 16.6663C10.6237 16.8321 10.5578 16.9911 10.4406 17.1083C10.3234 17.2255 10.1645 17.2913 9.9987 17.2913C8.06483 17.2913 6.21016 16.5231 4.84271 15.1557C3.47526 13.7882 2.70703 11.9335 2.70703 9.99967C2.70703 8.0658 3.47526 6.21114 4.84271 4.84369C6.21016 3.47623 8.06483 2.70801 9.9987 2.70801Z" fill="#AC00E6"/>
<path d="M13.7237 7.9417C13.6133 7.82322 13.5532 7.66652 13.5561 7.5046C13.5589 7.34268 13.6245 7.18819 13.739 7.07368C13.8535 6.95917 14.008 6.89358 14.1699 6.89072C14.3318 6.88787 14.4886 6.94797 14.607 7.05837L17.107 9.55837C17.2241 9.67556 17.2898 9.83441 17.2898 10C17.2898 10.1657 17.2241 10.3245 17.107 10.4417L14.607 12.9417C14.5498 13.0031 14.4808 13.0524 14.4041 13.0865C14.3275 13.1207 14.2447 13.139 14.1608 13.1405C14.0769 13.142 13.9935 13.1266 13.9157 13.0951C13.8379 13.0637 13.7672 13.0169 13.7078 12.9576C13.6485 12.8982 13.6017 12.8275 13.5703 12.7497C13.5388 12.6719 13.5234 12.5885 13.5249 12.5046C13.5264 12.4207 13.5447 12.3379 13.5789 12.2613C13.613 12.1846 13.6623 12.1156 13.7237 12.0584L15.157 10.625H8.33203C8.16627 10.625 8.0073 10.5592 7.89009 10.442C7.77288 10.3248 7.70703 10.1658 7.70703 10C7.70703 9.83428 7.77288 9.6753 7.89009 9.55809C8.0073 9.44088 8.16627 9.37504 8.33203 9.37504H15.157L13.7237 7.9417Z" fill="#AC00E6"/>
</svg>
