<svg width="40" height="40" viewBox="0 0 40 40" fill="none" xmlns="http://www.w3.org/2000/svg">
<circle cx="20" cy="20" r="19.5" fill="white" stroke="#FAFAFA"/>
<path d="M13.4375 18.125C13.1502 18.125 12.8658 18.1816 12.6004 18.2915C12.335 18.4014 12.0938 18.5626 11.8907 18.7657C11.6876 18.9688 11.5264 19.21 11.4165 19.4754C11.3066 19.7408 11.25 20.0252 11.25 20.3125C11.25 20.5998 11.3066 20.8842 11.4165 21.1496C11.5264 21.415 11.6876 21.6562 11.8907 21.8593C12.0938 22.0624 12.335 22.2236 12.6004 22.3335C12.8658 22.4434 13.1502 22.5 13.4375 22.5C14.0177 22.5 14.5741 22.2695 14.9843 21.8593C15.3945 21.4491 15.625 20.8927 15.625 20.3125C15.625 19.7323 15.3945 19.1759 14.9843 18.7657C14.5741 18.3555 14.0177 18.125 13.4375 18.125ZM13.4375 19.375C13.6861 19.375 13.9246 19.4738 14.1004 19.6496C14.2762 19.8254 14.375 20.0639 14.375 20.3125C14.375 20.5611 14.2762 20.7996 14.1004 20.9754C13.9246 21.1512 13.6861 21.25 13.4375 21.25C13.1889 21.25 12.9504 21.1512 12.7746 20.9754C12.5988 20.7996 12.5 20.5611 12.5 20.3125C12.5 20.0639 12.5988 19.8254 12.7746 19.6496C12.9504 19.4738 13.1889 19.375 13.4375 19.375ZM20 18.125C20.2873 18.125 20.5717 18.1816 20.8371 18.2915C21.1025 18.4014 21.3437 18.5626 21.5468 18.7657C21.7499 18.9688 21.9111 19.21 22.021 19.4754C22.1309 19.7408 22.1875 20.0252 22.1875 20.3125C22.1875 20.5998 22.1309 20.8842 22.021 21.1496C21.9111 21.415 21.7499 21.6562 21.5468 21.8593C21.3437 22.0624 21.1025 22.2236 20.8371 22.3335C20.5717 22.4434 20.2873 22.5 20 22.5C19.4198 22.5 18.8634 22.2695 18.4532 21.8593C18.043 21.4491 17.8125 20.8927 17.8125 20.3125C17.8125 19.7323 18.043 19.1759 18.4532 18.7657C18.8634 18.3555 19.4198 18.125 20 18.125ZM20 19.375C19.7514 19.375 19.5129 19.4738 19.3371 19.6496C19.1613 19.8254 19.0625 20.0639 19.0625 20.3125C19.0625 20.5611 19.1613 20.7996 19.3371 20.9754C19.5129 21.1512 19.7514 21.25 20 21.25C20.2486 21.25 20.4871 21.1512 20.6629 20.9754C20.8387 20.7996 20.9375 20.5611 20.9375 20.3125C20.9375 20.0639 20.8387 19.8254 20.6629 19.6496C20.4871 19.4738 20.2486 19.375 20 19.375ZM26.5625 18.125C26.8498 18.125 27.1342 18.1816 27.3996 18.2915C27.665 18.4014 27.9062 18.5626 28.1093 18.7657C28.3124 18.9688 28.4736 19.21 28.5835 19.4754C28.6934 19.7408 28.75 20.0252 28.75 20.3125C28.75 20.5998 28.6934 20.8842 28.5835 21.1496C28.4736 21.415 28.3124 21.6562 28.1093 21.8593C27.9062 22.0624 27.665 22.2236 27.3996 22.3335C27.1342 22.4434 26.8498 22.5 26.5625 22.5C25.9823 22.5 25.4259 22.2695 25.0157 21.8593C24.6055 21.4491 24.375 20.8927 24.375 20.3125C24.375 19.7323 24.6055 19.1759 25.0157 18.7657C25.4259 18.3555 25.9823 18.125 26.5625 18.125ZM26.5625 19.375C26.3139 19.375 26.0754 19.4738 25.8996 19.6496C25.7238 19.8254 25.625 20.0639 25.625 20.3125C25.625 20.5611 25.7238 20.7996 25.8996 20.9754C26.0754 21.1512 26.3139 21.25 26.5625 21.25C26.8111 21.25 27.0496 21.1512 27.2254 20.9754C27.4012 20.7996 27.5 20.5611 27.5 20.3125C27.5 20.0639 27.4012 19.8254 27.2254 19.6496C27.0496 19.4738 26.8111 19.375 26.5625 19.375Z" fill="#1F1F1F"/>
</svg>
