<svg width="20" height="20" viewBox="0 0 20 20" fill="none" xmlns="http://www.w3.org/2000/svg">
<path d="M9.9987 1.66699C7.7012 1.66699 5.83203 3.53616 5.83203 5.83366V7.50033H4.9987C4.07953 7.50033 3.33203 8.24783 3.33203 9.16699V16.667C3.33203 17.5862 4.07953 18.3337 4.9987 18.3337H14.9987C15.9179 18.3337 16.6654 17.5862 16.6654 16.667V9.16699C16.6654 8.24783 15.9179 7.50033 14.9987 7.50033H14.1654V5.83366C14.1654 3.53616 12.2962 1.66699 9.9987 1.66699ZM7.4987 5.83366C7.4987 4.45533 8.62036 3.33366 9.9987 3.33366C11.377 3.33366 12.4987 4.45533 12.4987 5.83366V7.50033H7.4987V5.83366ZM15.0004 16.667H10.832V14.7687C11.3279 14.4795 11.6654 13.9478 11.6654 13.3337C11.6654 12.4145 10.9179 11.667 9.9987 11.667C9.07953 11.667 8.33203 12.4145 8.33203 13.3337C8.33203 13.947 8.66953 14.4795 9.16536 14.7687V16.667H4.9987V9.16699H14.9987L15.0004 16.667Z" fill="#AC00E6"/>
</svg>
