<svg width="20" height="20" viewBox="0 0 20 20" fill="none" xmlns="http://www.w3.org/2000/svg">
<path d="M5 8.33398H8.33333" stroke="#AC00E6" stroke-width="1.2" stroke-linecap="round" stroke-linejoin="round"/>
<path d="M17.3608 9.16699H15.1925C13.705 9.16699 12.5 10.2862 12.5 11.667C12.5 13.0478 13.7058 14.167 15.1917 14.167H17.3608C17.4308 14.167 17.465 14.167 17.4942 14.1653C17.9442 14.1378 18.3025 13.8053 18.3317 13.3878C18.3333 13.3612 18.3333 13.3287 18.3333 13.2645V10.0695C18.3333 10.0053 18.3333 9.97283 18.3317 9.94616C18.3017 9.52866 17.9442 9.19616 17.4942 9.16866C17.465 9.16699 17.4308 9.16699 17.3608 9.16699Z" stroke="#AC00E6" stroke-width="1.2"/>
<path d="M17.4721 9.16667C17.4071 7.60667 17.1988 6.65 16.5246 5.97667C15.5488 5 13.9771 5 10.8346 5H8.33464C5.19214 5 3.62047 5 2.64464 5.97667C1.66797 6.9525 1.66797 8.52417 1.66797 11.6667C1.66797 14.8092 1.66797 16.3808 2.64464 17.3567C3.62047 18.3333 5.19214 18.3333 8.33464 18.3333H10.8346C13.9771 18.3333 15.5488 18.3333 16.5246 17.3567C17.1988 16.6833 17.408 15.7267 17.4721 14.1667" stroke="#AC00E6" stroke-width="1.2"/>
<path d="M5 5.00044L8.1125 2.93627C8.55022 2.65155 9.06116 2.5 9.58333 2.5C10.1055 2.5 10.6164 2.65155 11.0542 2.93627L14.1667 5.00044" stroke="#AC00E6" stroke-width="1.2" stroke-linecap="round"/>
<path d="M14.9941 11.667H15.0025" stroke="#AC00E6" stroke-width="1.2" stroke-linecap="round" stroke-linejoin="round"/>
</svg>
