<svg width="20" height="20" viewBox="0 0 20 20" fill="none" xmlns="http://www.w3.org/2000/svg">
<path d="M15.7747 16.6668C14.3702 16.6668 12.9302 16.3152 11.4547 15.6118C9.97912 14.9079 8.60856 13.9204 7.34301 12.6493C6.07634 11.3777 5.09134 10.0068 4.38801 8.53683C3.68467 7.06683 3.33301 5.62961 3.33301 4.22516C3.33301 3.97072 3.41634 3.75877 3.58301 3.58933C3.74967 3.41877 3.95801 3.3335 4.20801 3.3335H6.26884C6.49551 3.3335 6.69329 3.40488 6.86217 3.54766C7.03106 3.69044 7.14523 3.87322 7.20467 4.096L7.61801 6.0835C7.6569 6.31683 7.64995 6.52044 7.59717 6.69433C7.54495 6.86822 7.45273 7.01072 7.32051 7.12183L5.49134 8.82683C5.83356 9.44794 6.21162 10.0246 6.62551 10.5568C7.0394 11.0896 7.48106 11.5943 7.95051 12.071C8.43384 12.5543 8.9544 13.0043 9.51217 13.421C10.07 13.8371 10.6822 14.2299 11.3488 14.5993L13.1313 12.7852C13.2669 12.6391 13.4194 12.5427 13.5888 12.496C13.7583 12.4499 13.9455 12.4407 14.1505 12.4685L15.9038 12.8268C16.13 12.8824 16.3136 12.9963 16.4547 13.1685C16.5958 13.3413 16.6663 13.5393 16.6663 13.7627V15.7918C16.6663 16.0418 16.5813 16.2502 16.4113 16.4168C16.2419 16.5835 16.0291 16.6668 15.7747 16.6668ZM5.09967 8.04516L6.69967 6.5735C6.75301 6.53127 6.78745 6.47266 6.80301 6.39766C6.81967 6.32266 6.8169 6.25322 6.79467 6.18933L6.42551 4.42266C6.40384 4.33766 6.36634 4.27377 6.31301 4.231C6.25967 4.18822 6.19051 4.16683 6.10551 4.16683H4.39551C4.33162 4.16683 4.27829 4.18822 4.23551 4.231C4.19273 4.27377 4.17134 4.32711 4.17134 4.391C4.18745 4.96044 4.27634 5.55488 4.43801 6.17433C4.60079 6.79433 4.82079 7.41794 5.09967 8.04516ZM12.1422 14.9902C12.7055 15.2691 13.3055 15.4754 13.9422 15.6093C14.58 15.7427 15.1355 15.8141 15.6088 15.8235C15.6727 15.8235 15.7261 15.8024 15.7688 15.7602C15.8116 15.7174 15.833 15.6638 15.833 15.5993V13.9268C15.833 13.8413 15.8116 13.7718 15.7688 13.7185C15.7261 13.6646 15.6622 13.6271 15.5772 13.606L14.0355 13.2902C13.9711 13.2691 13.9147 13.2663 13.8663 13.2818C13.8186 13.2985 13.768 13.3332 13.7147 13.386L12.1422 14.9902Z" fill="#000EF8"/>
</svg>
