<svg width="32" height="26" viewBox="0 0 32 26" fill="none" xmlns="http://www.w3.org/2000/svg">
<path fill-rule="evenodd" clip-rule="evenodd" d="M8.11316 0.763319C13.3616 0.307084 18.6397 0.307084 23.8882 0.763319L26.4048 0.983319C27.5749 1.08519 28.6765 1.57791 29.5325 2.38212C30.3884 3.18633 30.9487 4.25523 31.1232 5.41665C31.879 10.444 31.879 15.556 31.1232 20.5833C30.9487 21.7447 30.3884 22.8136 29.5325 23.6179C28.6765 24.4221 27.5749 24.9148 26.4048 25.0167L23.8882 25.235C18.6382 25.6917 13.3615 25.6917 8.11316 25.235L5.5965 25.0167C4.42617 24.9151 3.3241 24.4226 2.46785 23.6183C1.6116 22.8141 1.05104 21.745 0.876496 20.5833C0.120595 15.556 0.120595 10.444 0.876496 5.41665C1.05097 4.25523 1.61129 3.18633 2.4672 2.38212C3.32311 1.57791 4.4248 1.08519 5.59483 0.983319L8.11316 0.763319ZM23.6715 3.25499C18.5667 2.8112 13.433 2.8112 8.32816 3.25499L5.8115 3.47332C5.2011 3.52672 4.62641 3.78392 4.1799 4.20352C3.73339 4.62313 3.44102 5.18074 3.34983 5.78665C2.92129 8.63776 2.74783 11.5214 2.8315 14.4033L9.28316 7.94999C9.40358 7.82977 9.54727 7.7354 9.70544 7.67267C9.8636 7.60993 10.0329 7.58015 10.203 7.58515C10.3731 7.59014 10.5403 7.6298 10.6946 7.70171C10.8488 7.77361 10.9867 7.87625 11.0998 8.00332L17.2198 14.8867L21.4365 13.48C21.6677 13.4026 21.9164 13.3945 22.1521 13.4567C22.3879 13.5189 22.6002 13.6486 22.7632 13.83L28.6282 20.3467C29.3685 15.5221 29.3764 10.6135 28.6515 5.78665C28.5602 5.18049 28.2676 4.62267 27.8208 4.20304C27.3739 3.7834 26.7989 3.52637 26.1882 3.47332L23.6715 3.25499ZM27.0332 22.3133L21.4515 16.1117L17.2282 17.5183C16.9961 17.5958 16.7463 17.6035 16.5099 17.5404C16.2735 17.4773 16.0608 17.3462 15.8982 17.1633L10.1132 10.655L3.03983 17.7267C3.1215 18.5567 3.22316 19.3867 3.34816 20.2117C3.43908 20.8181 3.73154 21.3763 4.17842 21.7963C4.62529 22.2163 5.20056 22.4735 5.8115 22.5267L8.32816 22.745C13.4332 23.1883 18.5665 23.1883 23.6715 22.745L26.1882 22.5267C26.4848 22.5 26.7715 22.4267 27.0332 22.3133Z" fill="#000EF8"/>
</svg>
