<svg width="32" height="32" viewBox="0 0 32 32" fill="none" xmlns="http://www.w3.org/2000/svg">
<path d="M18.6652 13.331L14.6652 17.331M27.0492 4.03902C27.1757 3.99536 27.312 3.98818 27.4424 4.01829C27.5728 4.0484 27.6921 4.11459 27.7867 4.2093C27.8812 4.30401 27.9472 4.42342 27.9772 4.55387C28.0071 4.68433 27.9997 4.82057 27.9558 4.94702L20.0572 27.5204C20.0099 27.6553 19.9232 27.7729 19.8083 27.858C19.6933 27.943 19.5555 27.9916 19.4126 27.9973C19.2698 28.003 19.1285 27.9657 19.0071 27.8902C18.8857 27.8147 18.7898 27.7044 18.7318 27.5737L14.4398 17.9177C14.3682 17.7568 14.2394 17.628 14.0785 17.5564L4.42252 13.263C4.29224 13.2049 4.1824 13.109 4.10719 12.9877C4.03197 12.8665 3.99484 12.7255 4.00058 12.583C4.00632 12.4404 4.05468 12.3028 4.1394 12.1881C4.22412 12.0733 4.34132 11.9865 4.47585 11.939L27.0492 4.03902Z" stroke="#000EF8" stroke-width="1.8" stroke-linecap="round" stroke-linejoin="round"/>
</svg>
