<svg width="16" height="16" viewBox="0 0 16 16" fill="none" xmlns="http://www.w3.org/2000/svg">
<path d="M13.3346 7.99967V3.83234C13.3347 3.77972 13.3243 3.7276 13.3042 3.67898C13.2841 3.63036 13.2545 3.58619 13.2173 3.54901L11.1186 1.45034C11.0437 1.37531 10.942 1.3331 10.836 1.33301H3.06797C2.96188 1.33301 2.86014 1.37515 2.78513 1.45017C2.71011 1.52518 2.66797 1.62692 2.66797 1.73301V14.2663C2.66797 14.3724 2.71011 14.4742 2.78513 14.5492C2.86014 14.6242 2.96188 14.6663 3.06797 14.6663H8.66797M5.33464 6.66634H10.668M5.33464 3.99967H8.0013M5.33464 9.33301H7.33464" stroke="#AC00E6" stroke-width="1.2" stroke-linecap="round" stroke-linejoin="round"/>
<path d="M10.668 1.33301V3.59967C10.668 3.70576 10.7101 3.8075 10.7851 3.88252C10.8601 3.95753 10.9619 3.99967 11.068 3.99967H13.3346M13.3293 10.083L15.0333 10.5157C15.2106 10.561 15.3353 10.7223 15.33 10.905C15.2153 14.7437 13.0013 15.333 13.0013 15.333C13.0013 15.333 10.7873 14.7437 10.6726 10.905C10.6706 10.8161 10.6988 10.7291 10.7527 10.6583C10.8066 10.5876 10.883 10.5373 10.9693 10.5157L12.6733 10.083C12.8886 10.0283 13.114 10.0283 13.3293 10.083Z" stroke="#AC00E6" stroke-width="1.2" stroke-linecap="round" stroke-linejoin="round"/>
</svg>
