<svg width="40" height="40" viewBox="0 0 40 40" fill="none" xmlns="http://www.w3.org/2000/svg">
<circle cx="20" cy="20" r="19.5" fill="white" stroke="#000EF8"/>
<path d="M14.9918 14.1075C15.1088 14.2247 15.1746 14.3835 15.1746 14.5492C15.1746 14.7148 15.1088 14.8736 14.9918 14.9908C14.334 15.6486 13.8122 16.4294 13.4563 17.2889C13.1003 18.1483 12.917 19.0694 12.917 19.9996C12.917 20.9298 13.1003 21.8509 13.4563 22.7103C13.8122 23.5697 14.334 24.3506 14.9918 25.0083C15.1056 25.1263 15.1685 25.2842 15.167 25.448C15.1655 25.6119 15.0997 25.7686 14.9838 25.8845C14.8678 26.0003 14.711 26.0659 14.5472 26.0673C14.3833 26.0686 14.2254 26.0056 14.1076 25.8917C10.8535 22.6375 10.8535 17.3617 14.1076 14.1075C14.2248 13.9905 14.3837 13.9247 14.5493 13.9247C14.7149 13.9247 14.8746 13.9905 14.9918 14.1075ZM25.8918 14.1075C29.146 17.3617 29.146 22.6383 25.8918 25.8925C25.7733 26.0029 25.6166 26.063 25.4547 26.0601C25.2928 26.0573 25.1383 25.9917 25.0238 25.8772C24.9093 25.7627 24.8437 25.6082 24.8408 25.4463C24.8379 25.2843 24.8981 25.1276 25.0085 25.0092C25.6663 24.3514 26.1882 23.5705 26.5443 22.711C26.9003 21.8515 27.0836 20.9303 27.0836 20C27.0836 19.0697 26.9003 18.1485 26.5443 17.289C26.1882 16.4295 25.6663 15.6486 25.0085 14.9908C24.947 14.9336 24.8978 14.8646 24.8636 14.7879C24.8295 14.7113 24.8111 14.6285 24.8096 14.5446C24.8081 14.4607 24.8236 14.3773 24.855 14.2995C24.8865 14.2217 24.9332 14.151 24.9926 14.0916C25.0519 14.0323 25.1226 13.9855 25.2005 13.9541C25.2783 13.9226 25.3616 13.9072 25.4456 13.9087C25.5295 13.9101 25.6122 13.9285 25.6889 13.9627C25.7656 13.9968 25.8346 14.0461 25.8918 14.1075ZM17.3485 16.4642C17.4655 16.5813 17.5312 16.7402 17.5312 16.9058C17.5312 17.0715 17.4655 17.2303 17.3485 17.3475C17.0001 17.6957 16.7238 18.1092 16.5352 18.5642C16.3467 19.0193 16.2497 19.507 16.2497 19.9996C16.2497 20.4921 16.3467 20.9799 16.5352 21.4349C16.7238 21.89 17.0001 22.3034 17.3485 22.6517C17.4589 22.7701 17.519 22.9268 17.5161 23.0888C17.5132 23.2507 17.4476 23.4052 17.3331 23.5197C17.2186 23.6342 17.0641 23.6998 16.9022 23.7026C16.7403 23.7055 16.5836 23.6454 16.4651 23.535C15.5275 22.5973 15.0008 21.3256 15.0008 19.9996C15.0008 18.6736 15.5275 17.4018 16.4651 16.4642C16.5823 16.3471 16.7412 16.2814 16.9068 16.2814C17.0724 16.2814 17.2313 16.3471 17.3485 16.4642ZM23.536 16.4642C24.4736 17.4018 25.0003 18.6736 25.0003 19.9996C25.0003 21.3256 24.4736 22.5973 23.536 23.535C23.4783 23.5947 23.4094 23.6424 23.3331 23.6752C23.2569 23.7079 23.1749 23.7252 23.0919 23.726C23.0089 23.7267 22.9266 23.711 22.8498 23.6796C22.773 23.6482 22.7032 23.6018 22.6445 23.5432C22.5858 23.4845 22.5393 23.4147 22.5078 23.3379C22.4764 23.2612 22.4605 23.1789 22.4612 23.0959C22.4619 23.0129 22.4791 22.9309 22.5118 22.8546C22.5445 22.7783 22.5921 22.7093 22.6518 22.6517C23 22.3034 23.2762 21.89 23.4647 21.4351C23.6532 20.9801 23.7501 20.4925 23.7501 20C23.7501 19.5075 23.6532 19.0199 23.4647 18.5649C23.2762 18.1099 23 17.6965 22.6518 17.3483C22.5414 17.2298 22.4813 17.0731 22.4841 16.9112C22.487 16.7493 22.5526 16.5948 22.6671 16.4803C22.7816 16.3658 22.9361 16.3002 23.098 16.2973C23.2599 16.2945 23.4166 16.3546 23.5351 16.465M20.0001 18.75C20.3316 18.75 20.6496 18.8817 20.884 19.1161C21.1184 19.3505 21.2501 19.6685 21.2501 20C21.2501 20.3315 21.1184 20.6495 20.884 20.8839C20.6496 21.1183 20.3316 21.25 20.0001 21.25C19.6686 21.25 19.3507 21.1183 19.1162 20.8839C18.8818 20.6495 18.7501 20.3315 18.7501 20C18.7501 19.6685 18.8818 19.3505 19.1162 19.1161C19.3507 18.8817 19.6686 18.75 20.0001 18.75Z" fill="#000EF8"/>
</svg>
