<svg width="20" height="20" viewBox="0 0 20 20" fill="none" xmlns="http://www.w3.org/2000/svg">
<path d="M4.99276 4.10713C5.1098 4.22431 5.17554 4.38317 5.17554 4.54879C5.17554 4.71442 5.1098 4.87327 4.99276 4.99046C4.33499 5.64821 3.81322 6.42908 3.45723 7.28849C3.10125 8.14789 2.91802 9.069 2.91802 9.99921C2.91802 10.9294 3.10125 11.8505 3.45723 12.7099C3.81322 13.5693 4.33499 14.3502 4.99276 15.008C5.10655 15.1259 5.16948 15.2838 5.16798 15.4477C5.16648 15.6115 5.10067 15.7683 4.98474 15.8841C4.8688 15.9999 4.71201 16.0656 4.54814 16.0669C4.38426 16.0683 4.22642 16.0052 4.10859 15.8913C0.854427 12.6371 0.854427 7.36129 4.10859 4.10713C4.22578 3.99008 4.38464 3.92434 4.55026 3.92434C4.71589 3.92434 4.87557 3.99008 4.99276 4.10713ZM15.8928 4.10713C19.1469 7.36129 19.1469 12.638 15.8928 15.8921C15.7743 16.0025 15.6176 16.0626 15.4557 16.0598C15.2937 16.0569 15.1393 15.9913 15.0247 15.8768C14.9102 15.7623 14.8446 15.6078 14.8418 15.4459C14.8389 15.284 14.899 15.1273 15.0094 15.0088C15.6673 14.351 16.1892 13.5701 16.5453 12.7106C16.9013 11.8511 17.0846 10.9299 17.0846 9.99963C17.0846 9.06931 16.9013 8.14811 16.5453 7.28863C16.1892 6.42915 15.6673 5.64823 15.0094 4.99046C14.948 4.93324 14.8988 4.86424 14.8646 4.78758C14.8305 4.71091 14.8121 4.62815 14.8106 4.54423C14.8091 4.46031 14.8246 4.37695 14.856 4.29913C14.8874 4.22131 14.9342 4.15061 14.9936 4.09126C15.0529 4.03191 15.1236 3.98513 15.2014 3.95369C15.2793 3.92226 15.3626 3.90682 15.4465 3.9083C15.5304 3.90978 15.6132 3.92815 15.6899 3.96231C15.7665 3.99647 15.8355 4.04572 15.8928 4.10713ZM7.34943 6.46379C7.46647 6.58098 7.53221 6.73983 7.53221 6.90546C7.53221 7.07109 7.46647 7.22994 7.34943 7.34713C7.00108 7.69536 6.72475 8.10881 6.53621 8.56386C6.34768 9.01892 6.25065 9.50665 6.25065 9.99921C6.25065 10.4918 6.34768 10.9795 6.53621 11.4346C6.72475 11.8896 7.00108 12.3031 7.34943 12.6513C7.45983 12.7698 7.51993 12.9265 7.51707 13.0884C7.51422 13.2503 7.44862 13.4048 7.33411 13.5193C7.2196 13.6338 7.06511 13.6994 6.9032 13.7023C6.74128 13.7051 6.58457 13.645 6.46609 13.5346C5.52848 12.597 5.00175 11.3252 5.00175 9.99921C5.00175 8.67319 5.52848 7.40147 6.46609 6.46379C6.58328 6.34675 6.74214 6.28101 6.90776 6.28101C7.07339 6.28101 7.23224 6.34675 7.34943 6.46379ZM13.5369 6.46379C14.4745 7.40147 15.0013 8.67319 15.0013 9.99921C15.0013 11.3252 14.4745 12.597 13.5369 13.5346C13.4793 13.5943 13.4104 13.642 13.3341 13.6748C13.2579 13.7076 13.1759 13.7249 13.0929 13.7256C13.0099 13.7264 12.9276 13.7106 12.8508 13.6792C12.774 13.6478 12.7041 13.6014 12.6454 13.5428C12.5867 13.4841 12.5403 13.4144 12.5088 13.3376C12.4774 13.2608 12.4615 13.1785 12.4622 13.0955C12.4629 13.0125 12.4801 12.9305 12.5128 12.8542C12.5455 12.778 12.5931 12.709 12.6528 12.6513C13.001 12.3031 13.2772 11.8897 13.4657 11.4347C13.6541 10.9797 13.7511 10.4921 13.7511 9.99963C13.7511 9.50717 13.6541 9.01953 13.4657 8.56455C13.2772 8.10958 13.001 7.69618 12.6528 7.34796C12.5424 7.22948 12.4823 7.07278 12.4851 6.91086C12.488 6.74894 12.5536 6.59445 12.6681 6.47994C12.7826 6.36543 12.9371 6.29984 13.099 6.29698C13.2609 6.29412 13.4176 6.35423 13.5361 6.46463M10.0011 8.74963C10.3326 8.74963 10.6506 8.88132 10.885 9.11574C11.1194 9.35016 11.2511 9.66811 11.2511 9.99963C11.2511 10.3311 11.1194 10.6491 10.885 10.8835C10.6506 11.1179 10.3326 11.2496 10.0011 11.2496C9.66957 11.2496 9.35163 11.1179 9.11721 10.8835C8.88279 10.6491 8.75109 10.3311 8.75109 9.99963C8.75109 9.66811 8.88279 9.35016 9.11721 9.11574C9.35163 8.88132 9.66957 8.74963 10.0011 8.74963Z" fill="#AC00E6"/>
</svg>
