<svg width="40" height="40" viewBox="0 0 40 40" fill="none" xmlns="http://www.w3.org/2000/svg">
<circle cx="20" cy="20" r="19.5" fill="white" stroke="#000EF8"/>
<path d="M14.9918 14.1071C15.1088 14.2243 15.1746 14.3832 15.1746 14.5488C15.1746 14.7144 15.1088 14.8733 14.9918 14.9905C14.334 15.6482 13.8122 16.4291 13.4563 17.2885C13.1003 18.1479 12.917 19.069 12.917 19.9992C12.917 20.9294 13.1003 21.8505 13.4563 22.7099C13.8122 23.5693 14.334 24.3502 14.9918 25.008C15.1056 25.1259 15.1685 25.2838 15.167 25.4477C15.1655 25.6115 15.0997 25.7683 14.9838 25.8841C14.8678 25.9999 14.711 26.0656 14.5472 26.0669C14.3833 26.0683 14.2254 26.0052 14.1076 25.8913C10.8535 22.6371 10.8535 17.3613 14.1076 14.1071C14.2248 13.9901 14.3837 13.9243 14.5493 13.9243C14.7149 13.9243 14.8746 13.9901 14.9918 14.1071ZM25.8918 14.1071C29.146 17.3613 29.146 22.638 25.8918 25.8921C25.7733 26.0025 25.6166 26.0626 25.4547 26.0598C25.2928 26.0569 25.1383 25.9913 25.0238 25.8768C24.9093 25.7623 24.8437 25.6078 24.8408 25.4459C24.8379 25.284 24.8981 25.1273 25.0085 25.0088C25.6663 24.351 26.1882 23.5701 26.5443 22.7106C26.9003 21.8511 27.0836 20.9299 27.0836 19.9996C27.0836 19.0693 26.9003 18.1481 26.5443 17.2886C26.1882 16.4292 25.6663 15.6482 25.0085 14.9905C24.947 14.9332 24.8978 14.8642 24.8636 14.7876C24.8295 14.7109 24.8111 14.6281 24.8096 14.5442C24.8081 14.4603 24.8236 14.377 24.855 14.2991C24.8865 14.2213 24.9332 14.1506 24.9926 14.0913C25.0519 14.0319 25.1226 13.9851 25.2005 13.9537C25.2783 13.9223 25.3616 13.9068 25.4456 13.9083C25.5295 13.9098 25.6122 13.9281 25.6889 13.9623C25.7656 13.9965 25.8346 14.0457 25.8918 14.1071ZM17.3485 16.4638C17.4655 16.581 17.5312 16.7398 17.5312 16.9055C17.5312 17.0711 17.4655 17.2299 17.3485 17.3471C17.0001 17.6954 16.7238 18.1088 16.5352 18.5639C16.3467 19.0189 16.2497 19.5067 16.2497 19.9992C16.2497 20.4918 16.3467 20.9795 16.5352 21.4346C16.7238 21.8896 17.0001 22.3031 17.3485 22.6513C17.4589 22.7698 17.519 22.9265 17.5161 23.0884C17.5132 23.2503 17.4476 23.4048 17.3331 23.5193C17.2186 23.6338 17.0641 23.6994 16.9022 23.7023C16.7403 23.7051 16.5836 23.645 16.4651 23.5346C15.5275 22.597 15.0008 21.3252 15.0008 19.9992C15.0008 18.6732 15.5275 17.4015 16.4651 16.4638C16.5823 16.3468 16.7412 16.281 16.9068 16.281C17.0724 16.281 17.2313 16.3468 17.3485 16.4638ZM23.536 16.4638C24.4736 17.4015 25.0003 18.6732 25.0003 19.9992C25.0003 21.3252 24.4736 22.597 23.536 23.5346C23.4783 23.5943 23.4094 23.642 23.3331 23.6748C23.2569 23.7076 23.1749 23.7249 23.0919 23.7256C23.0089 23.7264 22.9266 23.7106 22.8498 23.6792C22.773 23.6478 22.7032 23.6014 22.6445 23.5428C22.5858 23.4841 22.5393 23.4144 22.5078 23.3376C22.4764 23.2608 22.4605 23.1785 22.4612 23.0955C22.4619 23.0125 22.4791 22.9305 22.5118 22.8542C22.5445 22.778 22.5921 22.709 22.6518 22.6513C23 22.3031 23.2762 21.8897 23.4647 21.4347C23.6532 20.9797 23.7501 20.4921 23.7501 19.9996C23.7501 19.5072 23.6532 19.0195 23.4647 18.5646C23.2762 18.1096 23 17.6962 22.6518 17.348C22.5414 17.2295 22.4813 17.0728 22.4841 16.9109C22.487 16.7489 22.5526 16.5945 22.6671 16.4799C22.7816 16.3654 22.9361 16.2998 23.098 16.297C23.2599 16.2941 23.4166 16.3542 23.5351 16.4646M20.0001 18.7496C20.3316 18.7496 20.6496 18.8813 20.884 19.1157C21.1184 19.3502 21.2501 19.6681 21.2501 19.9996C21.2501 20.3311 21.1184 20.6491 20.884 20.8835C20.6496 21.1179 20.3316 21.2496 20.0001 21.2496C19.6686 21.2496 19.3507 21.1179 19.1162 20.8835C18.8818 20.6491 18.7501 20.3311 18.7501 19.9996C18.7501 19.6681 18.8818 19.3502 19.1162 19.1157C19.3507 18.8813 19.6686 18.7496 20.0001 18.7496Z" fill="#000EF8"/>
</svg>
