<svg width="24" height="24" viewBox="0 0 24 24" fill="none" xmlns="http://www.w3.org/2000/svg">
<path d="M18 9.1H21.9V19V19.1H22H22.9V20.9H1.1V19.1H2H2.1V19V9.1H6H6.1V9V6.62742L12 0.72742L17.9 6.62742V9V9.1H18ZM17.9 19V19.1H18H20H20.1V19V11V10.9H20H18H17.9V11V19ZM6.1 11V10.9H6H4H3.9V11V19V19.1H4H6H6.1V19V11ZM7.92929 7.34329L7.9 7.37258V7.414V19V19.1H8H11H11.1V19V12.1H12.9V19V19.1H13H16H16.1V19V7.414V7.37258L16.0707 7.34329L12.0707 3.34329L12 3.27258L11.9293 3.34329L7.92929 7.34329Z" fill="#000EF8" stroke="#FAFAFA" stroke-width="0.2"/>
</svg>
