<svg width="40" height="40" viewBox="0 0 40 40" fill="none" xmlns="http://www.w3.org/2000/svg">
<rect x="0.25" y="0.25" width="39.5" height="39.5" rx="19.75" stroke="#476BE8" stroke-opacity="0.11" stroke-width="0.5"/>
<path d="M17.4997 19.9998C17.4997 20.5524 17.2802 21.0823 16.8895 21.473C16.4988 21.8637 15.9689 22.0832 15.4163 22.0832C14.8638 22.0832 14.3339 21.8637 13.9432 21.473C13.5525 21.0823 13.333 20.5524 13.333 19.9998C13.333 19.4473 13.5525 18.9174 13.9432 18.5267C14.3339 18.136 14.8638 17.9165 15.4163 17.9165C15.9689 17.9165 16.4988 18.136 16.8895 18.5267C17.2802 18.9174 17.4997 19.4473 17.4997 19.9998Z" stroke="#333333" stroke-width="1.5"/>
<path d="M21.6667 15.4165L17.5 18.3332M21.6667 24.5832L17.5 21.6665" stroke="#333333" stroke-width="1.5" stroke-linecap="round"/>
<path d="M25.8327 25.4167C25.8327 25.9692 25.6132 26.4991 25.2225 26.8898C24.8318 27.2805 24.3019 27.5 23.7493 27.5C23.1968 27.5 22.6669 27.2805 22.2762 26.8898C21.8855 26.4991 21.666 25.9692 21.666 25.4167C21.666 24.8641 21.8855 24.3342 22.2762 23.9435C22.6669 23.5528 23.1968 23.3333 23.7493 23.3333C24.3019 23.3333 24.8318 23.5528 25.2225 23.9435C25.6132 24.3342 25.8327 24.8641 25.8327 25.4167ZM25.8327 14.5833C25.8327 15.1359 25.6132 15.6658 25.2225 16.0565C24.8318 16.4472 24.3019 16.6667 23.7493 16.6667C23.1968 16.6667 22.6669 16.4472 22.2762 16.0565C21.8855 15.6658 21.666 15.1359 21.666 14.5833C21.666 14.0308 21.8855 13.5009 22.2762 13.1102C22.6669 12.7195 23.1968 12.5 23.7493 12.5C24.3019 12.5 24.8318 12.7195 25.2225 13.1102C25.6132 13.5009 25.8327 14.0308 25.8327 14.5833Z" stroke="#333333" stroke-width="1.5"/>
</svg>
