<svg width="20" height="20" viewBox="0 0 20 20" fill="none" xmlns="http://www.w3.org/2000/svg">
<path d="M7.36494 5.55601C8.3152 3.852 8.78995 3 9.5002 3C10.2105 3 10.6852 3.852 11.6355 5.55601L11.8815 5.99701C12.1515 6.48151 12.2865 6.72376 12.4965 6.88351C12.7065 7.04326 12.969 7.10251 13.494 7.22101L13.971 7.32901C15.816 7.74676 16.7377 7.95527 16.9575 8.66102C17.1765 9.36602 16.548 10.1018 15.2902 11.5725L14.9647 11.9528C14.6077 12.3705 14.4285 12.5798 14.3482 12.8378C14.268 13.0965 14.295 13.3755 14.349 13.9328L14.3985 14.4405C14.5882 16.4033 14.6835 17.3843 14.109 17.82C13.5345 18.2565 12.6705 17.8583 10.944 17.0633L10.4962 16.8578C10.0057 16.6313 9.76045 16.5188 9.5002 16.5188C9.23995 16.5188 8.9947 16.6313 8.5042 16.8578L8.05719 17.0633C6.32994 17.8583 5.46594 18.2558 4.89219 17.8208C4.31693 17.3843 4.41218 16.4033 4.60193 14.4405L4.65143 13.9335C4.70543 13.3755 4.73243 13.0965 4.65143 12.8385C4.57193 12.5798 4.39268 12.3705 4.03568 11.9535L3.71018 11.5725C2.45243 10.1025 1.82393 9.36677 2.04293 8.66102C2.26268 7.95527 3.18518 7.74601 5.03019 7.32901L5.50719 7.22101C6.03144 7.10251 6.29319 7.04326 6.50394 6.88351C6.71394 6.72376 6.84894 6.48151 7.11894 5.99701L7.36494 5.55601Z" stroke="#AC00E6" stroke-width="1.2"/>
</svg>
