<svg width="20" height="20" viewBox="0 0 20 20" fill="none" xmlns="http://www.w3.org/2000/svg">
<path d="M6.268 3C6.44353 2.69597 6.696 2.4435 7.00003 2.26796C7.30406 2.09243 7.64894 2.00001 8 2H12.5C13.4283 2 14.3185 2.36875 14.9749 3.02513C15.6313 3.6815 16 4.57174 16 5.5V15.5C16 15.5904 15.9754 15.6792 15.9289 15.7568C15.8824 15.8343 15.8157 15.8979 15.736 15.9405C15.6563 15.9832 15.5664 16.0035 15.4761 15.9992C15.3858 15.9948 15.2983 15.9661 15.223 15.916L15 15.768V5.5C15 4.83696 14.7366 4.20107 14.2678 3.73223C13.7989 3.26339 13.163 3 12.5 3H6.268ZM6 4C5.46957 4 4.96086 4.21071 4.58579 4.58579C4.21071 4.96086 4 5.46957 4 6V17.5C4.00005 17.5904 4.02462 17.6792 4.07111 17.7568C4.1176 17.8343 4.18427 17.8979 4.264 17.9405C4.34373 17.9832 4.43355 18.0035 4.52389 17.9992C4.61423 17.9948 4.70171 17.9661 4.777 17.916L9 15.101L13.223 17.916C13.2983 17.9661 13.3858 17.9948 13.4761 17.9992C13.5664 18.0035 13.6563 17.9832 13.736 17.9405C13.8157 17.8979 13.8824 17.8343 13.9289 17.7568C13.9754 17.6792 14 17.5904 14 17.5V6C14 5.46957 13.7893 4.96086 13.4142 4.58579C13.0391 4.21071 12.5304 4 12 4H6ZM5 6C5 5.73478 5.10536 5.48043 5.29289 5.29289C5.48043 5.10536 5.73478 5 6 5H12C12.2652 5 12.5196 5.10536 12.7071 5.29289C12.8946 5.48043 13 5.73478 13 6V16.566L9.277 14.084C9.19494 14.0294 9.09857 14.0003 9 14.0003C8.90143 14.0003 8.80506 14.0294 8.723 14.084L5 16.566V6Z" fill="#AC00E6"/>
</svg>
