<svg width="12" height="18" viewBox="0 0 12 18" fill="none" xmlns="http://www.w3.org/2000/svg">
<path d="M4.059 10.885C3.931 10.885 3.825 10.843 3.741 10.759C3.657 10.6757 3.615 10.57 3.615 10.442V7.55801C3.615 7.43001 3.65667 7.32435 3.74 7.24101C3.82333 7.15768 3.929 7.11568 4.057 7.11501C4.18433 7.11501 4.29 7.15701 4.374 7.24101C4.458 7.32435 4.5 7.43001 4.5 7.55801V10.442C4.5 10.57 4.45833 10.6757 4.375 10.759C4.29167 10.843 4.18633 10.885 4.059 10.885ZM6.001 10.885C5.87367 10.885 5.768 10.843 5.684 10.759C5.6 10.6757 5.558 10.57 5.558 10.442V8.55801C5.558 8.43001 5.59967 8.32435 5.683 8.24101C5.76633 8.15701 5.87167 8.11501 5.999 8.11501C6.12633 8.11501 6.232 8.15701 6.316 8.24101C6.4 8.32435 6.442 8.43001 6.442 8.55801V10.442C6.442 10.57 6.40034 10.6757 6.317 10.759C6.23367 10.843 6.12833 10.885 6.001 10.885ZM7.943 10.885C7.81567 10.885 7.71 10.843 7.626 10.759C7.542 10.6757 7.5 10.57 7.5 10.442V9.55801C7.5 9.43001 7.54167 9.32435 7.625 9.24101C7.70833 9.15701 7.81367 9.11501 7.941 9.11501C8.069 9.11501 8.175 9.15701 8.259 9.24101C8.343 9.32435 8.385 9.43001 8.385 9.55801V10.442C8.385 10.57 8.34333 10.6757 8.26 10.759C8.17667 10.8423 8.071 10.8843 7.943 10.885ZM4.519 17.192C4.29367 17.192 4.08767 17.124 3.901 16.988C3.71433 16.8513 3.58633 16.6687 3.517 16.44L2.842 14.065C2.004 13.573 1.32067 12.8777 0.792001 11.979C0.263334 11.0803 -0.000665407 10.0873 1.25945e-06 9.00001C1.25945e-06 7.91335 0.264001 6.92035 0.792001 6.02101C1.32 5.12168 2.00333 4.42635 2.842 3.93501L3.517 1.56001C3.58633 1.33135 3.71433 1.14868 3.901 1.01201C4.08767 0.876014 4.29367 0.808014 4.519 0.808014H7.481C7.70633 0.808014 7.91233 0.876014 8.099 1.01201C8.28567 1.14868 8.41367 1.33135 8.483 1.56001L9.158 3.93501C9.996 4.42701 10.6793 5.12235 11.208 6.02101C11.7367 6.91968 12.0007 7.91268 12 9.00001C12 10.0867 11.736 11.0797 11.208 11.979C10.68 12.8783 9.99667 13.5737 9.158 14.065L8.483 16.44C8.41367 16.6687 8.28567 16.8513 8.099 16.988C7.91233 17.124 7.70633 17.192 7.481 17.192H4.519ZM6 14C7.38333 14 8.56267 13.5123 9.538 12.537C10.5133 11.5617 11.0007 10.3827 11 9.00001C11 7.61668 10.5123 6.43768 9.537 5.46301C8.56167 4.48835 7.38267 4.00068 6 4.00001C4.61667 4.00001 3.43767 4.48768 2.463 5.46301C1.48833 6.43835 1.00067 7.61735 1 9.00001C1 10.3833 1.48767 11.5627 2.463 12.538C3.43833 13.5133 4.61733 14.0007 6 14ZM4.062 3.32701C4.408 3.21768 4.73734 3.13501 5.05 3.07901C5.362 3.02235 5.67867 2.99401 6 2.99401C6.32133 2.99401 6.638 3.02235 6.95 3.07901C7.26333 3.13501 7.59267 3.21768 7.938 3.32701L7.5 1.80701H4.5L4.062 3.32701ZM4.5 16.192H7.5L7.938 14.673C7.592 14.7823 7.26267 14.861 6.95 14.909C6.638 14.957 6.32133 14.981 6 14.981C5.67867 14.981 5.362 14.957 5.05 14.909C4.73667 14.861 4.40734 14.7823 4.062 14.673L4.5 16.192ZM4.5 16.192H4.062H7.938H4.5Z" fill="#000EF8"/>
</svg>
