<svg width="17" height="16" viewBox="0 0 17 16" fill="none" xmlns="http://www.w3.org/2000/svg">
<g clip-path="url(#clip0_850_13775)">
<path d="M1.5 2.828C2.385 2.458 3.654 2.059 4.888 1.935C6.218 1.801 7.346 1.998 8 2.687V12.433C7.065 11.903 5.88 11.83 4.787 11.94C3.607 12.06 2.417 12.401 1.5 12.751V2.828ZM9 2.687C9.654 1.998 10.782 1.801 12.112 1.935C13.346 2.059 14.615 2.458 15.5 2.828V12.751C14.582 12.401 13.393 12.059 12.213 11.941C11.119 11.83 9.935 11.902 9 12.433V2.687ZM8.5 1.783C7.515 0.936003 6.087 0.810003 4.787 0.940003C3.273 1.093 1.745 1.612 0.793 2.045C0.705649 2.08473 0.631575 2.14876 0.579621 2.22944C0.527667 2.31012 0.500027 2.40404 0.5 2.5V13.5C0.500023 13.5837 0.521037 13.666 0.561117 13.7394C0.601197 13.8128 0.659062 13.875 0.729411 13.9203C0.79976 13.9656 0.880345 13.9925 0.963783 13.9986C1.04722 14.0046 1.13085 13.9896 1.207 13.955C2.089 13.555 3.51 13.074 4.887 12.935C6.296 12.793 7.477 13.022 8.11 13.812C8.15685 13.8704 8.21622 13.9175 8.28372 13.9499C8.35122 13.9823 8.42513 13.9991 8.5 13.9991C8.57487 13.9991 8.64878 13.9823 8.71628 13.9499C8.78378 13.9175 8.84315 13.8704 8.89 13.812C9.523 13.022 10.704 12.793 12.112 12.935C13.49 13.074 14.912 13.555 15.793 13.955C15.8692 13.9896 15.9528 14.0046 16.0362 13.9986C16.1197 13.9925 16.2002 13.9656 16.2706 13.9203C16.3409 13.875 16.3988 13.8128 16.4389 13.7394C16.479 13.666 16.5 13.5837 16.5 13.5V2.5C16.5 2.40404 16.4723 2.31012 16.4204 2.22944C16.3684 2.14876 16.2944 2.08473 16.207 2.045C15.255 1.612 13.727 1.093 12.213 0.940003C10.913 0.809003 9.485 0.936003 8.5 1.783Z" fill="#000EF8"/>
</g>
<defs>
<clipPath id="clip0_850_13775">
<rect width="16" height="16" fill="white" transform="translate(0.5)"/>
</clipPath>
</defs>
</svg>
