<svg width="87" height="18" viewBox="0 0 87 18" fill="none" xmlns="http://www.w3.org/2000/svg">
<rect x="0.5" y="0.5" width="86" height="17" rx="3.5" fill="#FCFCFC"/>
<rect x="0.5" y="0.5" width="86" height="17" rx="3.5" stroke="#FAFAFA"/>
<path d="M11.0625 5.125C10.8139 5.125 10.5754 5.22377 10.3996 5.39959C10.2238 5.5754 10.125 5.81386 10.125 6.0625V11.9375C10.125 12.1861 10.2238 12.4246 10.3996 12.6004C10.5754 12.7762 10.8139 12.875 11.0625 12.875H16.9375C17.1861 12.875 17.4246 12.7762 17.6004 12.6004C17.7762 12.4246 17.875 12.1861 17.875 11.9375V9.8125C17.875 9.72962 17.9079 9.65013 17.9665 9.59153C18.0251 9.53292 18.1046 9.5 18.1875 9.5C18.2704 9.5 18.3499 9.53292 18.4085 9.59153C18.4671 9.65013 18.5 9.72962 18.5 9.8125V11.9375C18.5 12.3519 18.3354 12.7493 18.0424 13.0424C17.7493 13.3354 17.3519 13.5 16.9375 13.5H11.0625C10.6481 13.5 10.2507 13.3354 9.95765 13.0424C9.66462 12.7493 9.5 12.3519 9.5 11.9375V6.0625C9.5 5.6481 9.66462 5.25067 9.95765 4.95765C10.2507 4.66462 10.6481 4.5 11.0625 4.5H13.1875C13.2704 4.5 13.3499 4.53292 13.4085 4.59153C13.4671 4.65013 13.5 4.72962 13.5 4.8125C13.5 4.89538 13.4671 4.97487 13.4085 5.03347C13.3499 5.09208 13.2704 5.125 13.1875 5.125H11.0625ZM14.75 4.8125C14.75 4.64 14.89 4.5 15.0625 4.5H18.1875C18.36 4.5 18.5 4.64 18.5 4.8125V7.9375C18.5 8.02038 18.4671 8.09987 18.4085 8.15847C18.3499 8.21708 18.2704 8.25 18.1875 8.25C18.1046 8.25 18.0251 8.21708 17.9665 8.15847C17.9079 8.09987 17.875 8.02038 17.875 7.9375V5.567L15.2835 8.1585C15.2249 8.21711 15.1454 8.25004 15.0625 8.25004C14.9796 8.25004 14.9001 8.21711 14.8415 8.1585C14.7829 8.09989 14.75 8.02039 14.75 7.9375C14.75 7.85461 14.7829 7.77511 14.8415 7.7165L17.433 5.125H15.0625C14.89 5.125 14.75 4.985 14.75 4.8125Z" fill="#828282"/>
<path d="M29.7244 6.18182L31.4517 11.0795H31.5199L33.2472 6.18182H33.9858L31.8494 12H31.1222L28.9858 6.18182H29.7244ZM34.8011 12V7.63636H35.4716V12H34.8011ZM35.142 6.90909C35.0114 6.90909 34.8987 6.86458 34.804 6.77557C34.7112 6.68655 34.6648 6.57955 34.6648 6.45455C34.6648 6.32955 34.7112 6.22254 34.804 6.13352C34.8987 6.04451 35.0114 6 35.142 6C35.2727 6 35.3845 6.04451 35.4773 6.13352C35.572 6.22254 35.6193 6.32955 35.6193 6.45455C35.6193 6.57955 35.572 6.68655 35.4773 6.77557C35.3845 6.86458 35.2727 6.90909 35.142 6.90909ZM38.5291 12.0909C38.1087 12.0909 37.746 11.9981 37.4411 11.8125C37.138 11.625 36.9041 11.3636 36.7393 11.0284C36.5765 10.6913 36.495 10.2992 36.495 9.85227C36.495 9.4053 36.5765 9.01136 36.7393 8.67045C36.9041 8.32765 37.1333 8.06061 37.4268 7.86932C37.7223 7.67614 38.067 7.57955 38.4609 7.57955C38.6882 7.57955 38.9126 7.61742 39.1342 7.69318C39.3558 7.76894 39.5575 7.89205 39.7393 8.0625C39.9212 8.23106 40.0661 8.45455 40.174 8.73295C40.282 9.01136 40.3359 9.35417 40.3359 9.76136V10.0455H36.9723V9.46591H39.6541C39.6541 9.2197 39.6049 9 39.5064 8.80682C39.4098 8.61364 39.2715 8.46117 39.0916 8.34943C38.9136 8.23769 38.7034 8.18182 38.4609 8.18182C38.1939 8.18182 37.9628 8.24811 37.7678 8.38068C37.5746 8.51136 37.4259 8.68182 37.3217 8.89205C37.2176 9.10227 37.1655 9.32765 37.1655 9.56818V9.95455C37.1655 10.2841 37.2223 10.5634 37.3359 10.7926C37.4515 11.0199 37.6115 11.1932 37.8161 11.3125C38.0206 11.4299 38.2583 11.4886 38.5291 11.4886C38.7053 11.4886 38.8643 11.464 39.0064 11.4148C39.1503 11.3636 39.2744 11.2879 39.3786 11.1875C39.4827 11.0852 39.5632 10.9583 39.62 10.8068L40.2678 10.9886C40.1996 11.2083 40.085 11.4015 39.924 11.5682C39.763 11.733 39.5642 11.8617 39.3274 11.9545C39.0907 12.0455 38.8246 12.0909 38.5291 12.0909ZM42.3445 12L41.0149 7.63636H41.7195L42.6626 10.9773H42.7081L43.6399 7.63636H44.3558L45.2763 10.9659H45.3217L46.2649 7.63636H46.9695L45.6399 12H44.9808L44.0263 8.64773H43.9581L43.0036 12H42.3445ZM50.1058 12V7.63636H50.7763V12H50.1058ZM50.4467 6.90909C50.3161 6.90909 50.2034 6.86458 50.1087 6.77557C50.0159 6.68655 49.9695 6.57955 49.9695 6.45455C49.9695 6.32955 50.0159 6.22254 50.1087 6.13352C50.2034 6.04451 50.3161 6 50.4467 6C50.5774 6 50.6892 6.04451 50.782 6.13352C50.8767 6.22254 50.924 6.32955 50.924 6.45455C50.924 6.57955 50.8767 6.68655 50.782 6.77557C50.6892 6.86458 50.5774 6.90909 50.4467 6.90909ZM52.6747 9.375V12H52.0043V7.63636H52.652V8.31818H52.7088C52.8111 8.09659 52.9664 7.91856 53.1747 7.78409C53.383 7.64773 53.652 7.57955 53.9815 7.57955C54.277 7.57955 54.5355 7.64015 54.7571 7.76136C54.9787 7.88068 55.151 8.0625 55.2741 8.30682C55.3973 8.54924 55.4588 8.85606 55.4588 9.22727V12H54.7884V9.27273C54.7884 8.92992 54.6993 8.66288 54.5213 8.47159C54.3433 8.27841 54.099 8.18182 53.7884 8.18182C53.5743 8.18182 53.383 8.22822 53.2145 8.32102C53.0478 8.41383 52.9162 8.54924 52.8196 8.72727C52.723 8.9053 52.6747 9.12121 52.6747 9.375ZM59.0249 6.18182H59.8658L61.843 11.0114H61.9112L63.8885 6.18182H64.7294V12H64.0703V7.57955H64.0135L62.1953 12H61.5589L59.7408 7.57955H59.6839V12H59.0249V6.18182ZM67.3352 12.1023C67.0587 12.1023 66.8078 12.0502 66.5824 11.946C66.357 11.84 66.178 11.6875 66.0455 11.4886C65.9129 11.2879 65.8466 11.0455 65.8466 10.7614C65.8466 10.5114 65.8958 10.3087 65.9943 10.1534C66.0928 9.99621 66.2244 9.87311 66.3892 9.78409C66.554 9.69508 66.7358 9.62879 66.9347 9.58523C67.1354 9.53977 67.3371 9.50379 67.5398 9.47727C67.8049 9.44318 68.0199 9.41761 68.1847 9.40057C68.3513 9.38163 68.4725 9.35038 68.5483 9.30682C68.6259 9.26326 68.6648 9.1875 68.6648 9.07955V9.05682C68.6648 8.77652 68.5881 8.55871 68.4347 8.40341C68.2831 8.24811 68.053 8.17045 67.7443 8.17045C67.4242 8.17045 67.1733 8.24053 66.9915 8.38068C66.8097 8.52083 66.6818 8.67045 66.608 8.82955L65.9716 8.60227C66.0852 8.33712 66.2367 8.13068 66.4261 7.98295C66.6174 7.83333 66.8258 7.72917 67.0511 7.67045C67.2784 7.60985 67.5019 7.57955 67.7216 7.57955C67.8617 7.57955 68.0227 7.59659 68.2045 7.63068C68.3883 7.66288 68.5653 7.73011 68.7358 7.83239C68.9081 7.93466 69.0511 8.08902 69.1648 8.29545C69.2784 8.50189 69.3352 8.77841 69.3352 9.125V12H68.6648V11.4091H68.6307C68.5852 11.5038 68.5095 11.6051 68.4034 11.7131C68.2973 11.821 68.1563 11.9129 67.9801 11.9886C67.804 12.0644 67.589 12.1023 67.3352 12.1023ZM67.4375 11.5C67.7027 11.5 67.9261 11.4479 68.108 11.3438C68.2917 11.2396 68.4299 11.1051 68.5227 10.9403C68.6174 10.7756 68.6648 10.6023 68.6648 10.4205V9.80682C68.6364 9.84091 68.5739 9.87216 68.4773 9.90057C68.3826 9.92708 68.2727 9.95076 68.1477 9.97159C68.0246 9.99053 67.9044 10.0076 67.7869 10.0227C67.6714 10.036 67.5777 10.0473 67.5057 10.0568C67.3314 10.0795 67.1686 10.1165 67.017 10.1676C66.8674 10.2169 66.7462 10.2917 66.6534 10.392C66.5625 10.4905 66.517 10.625 66.517 10.7955C66.517 11.0284 66.6032 11.2045 66.7756 11.3239C66.9498 11.4413 67.1705 11.5 67.4375 11.5ZM70.5589 13.6364V7.63636H71.2067V8.32955H71.2862C71.3355 8.25379 71.4036 8.1572 71.4908 8.03977C71.5798 7.92045 71.7067 7.81439 71.8714 7.72159C72.0381 7.62689 72.2635 7.57955 72.5476 7.57955C72.915 7.57955 73.2389 7.6714 73.5192 7.85511C73.7995 8.03883 74.0182 8.29924 74.1754 8.63636C74.3326 8.97348 74.4112 9.37121 74.4112 9.82955C74.4112 10.2917 74.3326 10.6922 74.1754 11.0312C74.0182 11.3684 73.8004 11.6297 73.522 11.8153C73.2436 11.9991 72.9226 12.0909 72.5589 12.0909C72.2786 12.0909 72.0542 12.0445 71.8857 11.9517C71.7171 11.857 71.5874 11.75 71.4964 11.6307C71.4055 11.5095 71.3355 11.4091 71.2862 11.3295H71.2294V13.6364H70.5589ZM71.218 9.81818C71.218 10.1477 71.2663 10.4384 71.3629 10.6903C71.4595 10.9403 71.6006 11.1364 71.7862 11.2784C71.9718 11.4186 72.1991 11.4886 72.468 11.4886C72.7483 11.4886 72.9822 11.4148 73.1697 11.267C73.3591 11.1174 73.5012 10.9167 73.5959 10.6648C73.6925 10.411 73.7408 10.1288 73.7408 9.81818C73.7408 9.51136 73.6934 9.23485 73.5987 8.98864C73.5059 8.74053 73.3648 8.54451 73.1754 8.40057C72.9879 8.25473 72.7521 8.18182 72.468 8.18182C72.1953 8.18182 71.9661 8.25095 71.7805 8.3892C71.5949 8.52557 71.4548 8.71686 71.3601 8.96307C71.2654 9.20739 71.218 9.49242 71.218 9.81818ZM78.5249 8.61364L77.9226 8.78409C77.8847 8.68371 77.8288 8.58617 77.755 8.49148C77.683 8.39489 77.5845 8.31534 77.4595 8.25284C77.3345 8.19034 77.1745 8.15909 76.9794 8.15909C76.7124 8.15909 76.4898 8.22064 76.3118 8.34375C76.1357 8.46496 76.0476 8.61932 76.0476 8.80682C76.0476 8.97348 76.1082 9.10511 76.2294 9.2017C76.3506 9.2983 76.54 9.37879 76.7976 9.44318L77.4453 9.60227C77.8355 9.69697 78.1262 9.84186 78.3175 10.0369C78.5088 10.2301 78.6044 10.4792 78.6044 10.7841C78.6044 11.0341 78.5324 11.2576 78.3885 11.4545C78.2464 11.6515 78.0476 11.8068 77.7919 11.9205C77.5362 12.0341 77.2389 12.0909 76.8999 12.0909C76.4548 12.0909 76.0864 11.9943 75.7947 11.8011C75.5031 11.608 75.3184 11.3258 75.2408 10.9545L75.8771 10.7955C75.9377 11.0303 76.0523 11.2064 76.2209 11.3239C76.3913 11.4413 76.6139 11.5 76.8885 11.5C77.201 11.5 77.4491 11.4337 77.6328 11.3011C77.8184 11.1667 77.9112 11.0057 77.9112 10.8182C77.9112 10.6667 77.8582 10.5398 77.7521 10.4375C77.6461 10.3333 77.4832 10.2557 77.2635 10.2045L76.5362 10.0341C76.1366 9.93939 75.843 9.79261 75.6555 9.59375C75.4699 9.39299 75.3771 9.14205 75.3771 8.84091C75.3771 8.5947 75.4463 8.37689 75.5845 8.1875C75.7247 7.99811 75.915 7.84943 76.1555 7.74148C76.398 7.63352 76.6726 7.57955 76.9794 7.57955C77.4112 7.57955 77.7502 7.67424 77.9964 7.86364C78.2446 8.05303 78.4207 8.30303 78.5249 8.61364Z" fill="#828282"/>
</svg>
