<svg width="20" height="20" viewBox="0 0 20 20" fill="none" xmlns="http://www.w3.org/2000/svg">
<mask id="path-1-inside-1_704_18895" fill="white">
<path d="M13.6337 11.6665C13.7003 11.1165 13.7503 10.5665 13.7503 9.99984C13.7503 9.43317 13.7003 8.88317 13.6337 8.33317H16.4503C16.5837 8.8665 16.667 9.42484 16.667 9.99984C16.667 10.5748 16.5837 11.1332 16.4503 11.6665M12.1587 16.2998C12.6587 15.3748 13.042 14.3748 13.3087 13.3332H15.767C14.9596 14.7234 13.6788 15.7765 12.1587 16.2998ZM11.9503 11.6665H8.05033C7.96699 11.1165 7.91699 10.5665 7.91699 9.99984C7.91699 9.43317 7.96699 8.87484 8.05033 8.33317H11.9503C12.0253 8.87484 12.0837 9.43317 12.0837 9.99984C12.0837 10.5665 12.0253 11.1165 11.9503 11.6665ZM10.0003 16.6332C9.30866 15.6332 8.75033 14.5248 8.40866 13.3332H11.592C11.2503 14.5248 10.692 15.6332 10.0003 16.6332ZM6.66699 6.6665H4.23366C5.03271 5.27252 6.31265 4.21774 7.83366 3.69984C7.33366 4.62484 6.95866 5.62484 6.66699 6.6665ZM4.23366 13.3332H6.66699C6.95866 14.3748 7.33366 15.3748 7.83366 16.2998C6.31585 15.7762 5.0377 14.7229 4.23366 13.3332ZM3.55033 11.6665C3.41699 11.1332 3.33366 10.5748 3.33366 9.99984C3.33366 9.42484 3.41699 8.8665 3.55033 8.33317H6.36699C6.30033 8.88317 6.25033 9.43317 6.25033 9.99984C6.25033 10.5665 6.30033 11.1165 6.36699 11.6665M10.0003 3.35817C10.692 4.35817 11.2503 5.47484 11.592 6.6665H8.40866C8.75033 5.47484 9.30866 4.35817 10.0003 3.35817ZM15.767 6.6665H13.3087C13.0478 5.63439 12.6616 4.63808 12.1587 3.69984C13.692 4.22484 14.967 5.28317 15.767 6.6665ZM10.0003 1.6665C5.39199 1.6665 1.66699 5.4165 1.66699 9.99984C1.66699 12.21 2.54497 14.3296 4.10777 15.8924C4.88159 16.6662 5.80025 17.28 6.8113 17.6988C7.82234 18.1176 8.90598 18.3332 10.0003 18.3332C12.2105 18.3332 14.3301 17.4552 15.8929 15.8924C17.4557 14.3296 18.3337 12.21 18.3337 9.99984C18.3337 8.90549 18.1181 7.82185 17.6993 6.81081C17.2805 5.79976 16.6667 4.8811 15.8929 4.10728C15.1191 3.33346 14.2004 2.71963 13.1894 2.30084C12.1783 1.88205 11.0947 1.6665 10.0003 1.6665Z"/>
</mask>
<path d="M13.6337 11.6665C13.7003 11.1165 13.7503 10.5665 13.7503 9.99984C13.7503 9.43317 13.7003 8.88317 13.6337 8.33317H16.4503C16.5837 8.8665 16.667 9.42484 16.667 9.99984C16.667 10.5748 16.5837 11.1332 16.4503 11.6665M12.1587 16.2998C12.6587 15.3748 13.042 14.3748 13.3087 13.3332H15.767C14.9596 14.7234 13.6788 15.7765 12.1587 16.2998ZM11.9503 11.6665H8.05033C7.96699 11.1165 7.91699 10.5665 7.91699 9.99984C7.91699 9.43317 7.96699 8.87484 8.05033 8.33317H11.9503C12.0253 8.87484 12.0837 9.43317 12.0837 9.99984C12.0837 10.5665 12.0253 11.1165 11.9503 11.6665ZM10.0003 16.6332C9.30866 15.6332 8.75033 14.5248 8.40866 13.3332H11.592C11.2503 14.5248 10.692 15.6332 10.0003 16.6332ZM6.66699 6.6665H4.23366C5.03271 5.27252 6.31265 4.21774 7.83366 3.69984C7.33366 4.62484 6.95866 5.62484 6.66699 6.6665ZM4.23366 13.3332H6.66699C6.95866 14.3748 7.33366 15.3748 7.83366 16.2998C6.31585 15.7762 5.0377 14.7229 4.23366 13.3332ZM3.55033 11.6665C3.41699 11.1332 3.33366 10.5748 3.33366 9.99984C3.33366 9.42484 3.41699 8.8665 3.55033 8.33317H6.36699C6.30033 8.88317 6.25033 9.43317 6.25033 9.99984C6.25033 10.5665 6.30033 11.1165 6.36699 11.6665M10.0003 3.35817C10.692 4.35817 11.2503 5.47484 11.592 6.6665H8.40866C8.75033 5.47484 9.30866 4.35817 10.0003 3.35817ZM15.767 6.6665H13.3087C13.0478 5.63439 12.6616 4.63808 12.1587 3.69984C13.692 4.22484 14.967 5.28317 15.767 6.6665ZM10.0003 1.6665C5.39199 1.6665 1.66699 5.4165 1.66699 9.99984C1.66699 12.21 2.54497 14.3296 4.10777 15.8924C4.88159 16.6662 5.80025 17.28 6.8113 17.6988C7.82234 18.1176 8.90598 18.3332 10.0003 18.3332C12.2105 18.3332 14.3301 17.4552 15.8929 15.8924C17.4557 14.3296 18.3337 12.21 18.3337 9.99984C18.3337 8.90549 18.1181 7.82185 17.6993 6.81081C17.2805 5.79976 16.6667 4.8811 15.8929 4.10728C15.1191 3.33346 14.2004 2.71963 13.1894 2.30084C12.1783 1.88205 11.0947 1.6665 10.0003 1.6665Z" fill="#000EF8"/>
<path d="M13.6337 8.33317V7.93317H13.1822L13.2366 8.3813L13.6337 8.33317ZM16.4503 8.33317L16.8384 8.23616L16.7626 7.93317H16.4503V8.33317ZM12.1587 16.2998L11.8068 16.1096L11.319 17.0119L12.2889 16.6781L12.1587 16.2998ZM13.3087 13.3332V12.9332H12.9982L12.9212 13.234L13.3087 13.3332ZM15.767 13.3332L16.1129 13.534L16.4618 12.9332H15.767V13.3332ZM11.9503 11.6665V12.0665H12.2995L12.3467 11.7205L11.9503 11.6665ZM8.05033 11.6665L7.65484 11.7264L7.70637 12.0665H8.05033V11.6665ZM8.05033 8.33317V7.93317H7.70716L7.65498 8.27235L8.05033 8.33317ZM11.9503 8.33317L12.3465 8.27831L12.2988 7.93317H11.9503V8.33317ZM10.0003 16.6332L9.67135 16.8607L10.0003 17.3363L10.3293 16.8607L10.0003 16.6332ZM8.40866 13.3332V12.9332H7.87786L8.02415 13.4434L8.40866 13.3332ZM11.592 13.3332L11.9765 13.4434L12.1228 12.9332H11.592V13.3332ZM6.66699 6.6665V7.0665H6.97038L7.05218 6.77436L6.66699 6.6665ZM4.23366 6.6665L3.88663 6.46758L3.54332 7.0665H4.23366V6.6665ZM7.83366 3.69984L8.18554 3.89004L8.67085 2.99222L7.70473 3.32119L7.83366 3.69984ZM4.23366 13.3332V12.9332H3.54012L3.88743 13.5335L4.23366 13.3332ZM6.66699 13.3332L7.05218 13.2253L6.97038 12.9332H6.66699V13.3332ZM7.83366 16.2998L7.70321 16.678L8.67373 17.0128L8.18554 16.1096L7.83366 16.2998ZM3.55033 8.33317V7.93317H3.23802L3.16227 8.23616L3.55033 8.33317ZM6.36699 8.33317L6.76409 8.3813L6.8184 7.93317H6.36699V8.33317ZM10.0003 3.35817L10.3293 3.13063L10.0003 2.655L9.67135 3.13063L10.0003 3.35817ZM11.592 6.6665V7.0665H12.1228L11.9765 6.55626L11.592 6.6665ZM8.40866 6.6665L8.02415 6.55626L7.87786 7.0665H8.40866V6.6665ZM15.767 6.6665V7.0665H16.4604L16.1133 6.46625L15.767 6.6665ZM13.3087 6.6665L12.9208 6.7645L12.9972 7.0665H13.3087V6.6665ZM12.1587 3.69984L12.2882 3.3214L11.3252 2.99166L11.8061 3.88883L12.1587 3.69984ZM10.0003 1.6665V1.2665V1.6665ZM10.0003 18.3332V18.7332V18.3332ZM14.0308 11.7146C14.0983 11.1574 14.1503 10.5895 14.1503 9.99984H13.3503C13.3503 10.5435 13.3024 11.0756 13.2366 11.6184L14.0308 11.7146ZM14.1503 9.99984C14.1503 9.41017 14.0983 8.84224 14.0308 8.28504L13.2366 8.3813C13.3024 8.9241 13.3503 9.45617 13.3503 9.99984H14.1503ZM13.6337 8.73317H16.4503V7.93317H13.6337V8.73317ZM16.0623 8.43018C16.1892 8.93808 16.267 9.46345 16.267 9.99984H17.067C17.067 9.38622 16.9781 8.79492 16.8384 8.23616L16.0623 8.43018ZM16.267 9.99984C16.267 10.5362 16.1892 11.0616 16.0623 11.5695L16.8384 11.7635C16.9781 11.2048 17.067 10.6134 17.067 9.99984H16.267ZM12.5105 16.49C13.0272 15.5343 13.422 14.5035 13.6962 13.4324L12.9212 13.234C12.662 14.2462 12.2902 15.2154 11.8068 16.1096L12.5105 16.49ZM13.3087 13.7332H15.767V12.9332H13.3087V13.7332ZM15.4211 13.1323C14.662 14.4394 13.4577 15.4296 12.0284 15.9216L12.2889 16.6781C13.8998 16.1234 15.2573 15.0074 16.1129 13.534L15.4211 13.1323ZM11.9503 11.2665H8.05033V12.0665H11.9503V11.2665ZM8.44581 11.6066C8.36487 11.0723 8.31699 10.5427 8.31699 9.99984H7.51699C7.51699 10.5903 7.56912 11.1607 7.65484 11.7264L8.44581 11.6066ZM8.31699 9.99984C8.31699 9.45656 8.36494 8.91877 8.44567 8.39399L7.65498 8.27235C7.56904 8.83091 7.51699 9.40978 7.51699 9.99984H8.31699ZM8.05033 8.73317H11.9503V7.93317H8.05033V8.73317ZM11.5541 8.38803C11.628 8.92172 11.6837 9.45954 11.6837 9.99984H12.4837C12.4837 9.4068 12.4226 8.82795 12.3465 8.27831L11.5541 8.38803ZM11.6837 9.99984C11.6837 10.5399 11.6281 11.0692 11.554 11.6125L12.3467 11.7205C12.4226 11.1638 12.4837 10.5931 12.4837 9.99984H11.6837ZM10.3293 16.4056C9.65871 15.4361 9.12116 14.3669 8.79317 13.2229L8.02415 13.4434C8.37949 14.6828 8.9586 15.8302 9.67135 16.8607L10.3293 16.4056ZM8.40866 13.7332H11.592V12.9332H8.40866V13.7332ZM11.2075 13.2229C10.8795 14.3669 10.3419 15.4361 9.67135 16.4056L10.3293 16.8607C11.042 15.8302 11.6212 14.6828 11.9765 13.4434L11.2075 13.2229ZM6.66699 6.2665H4.23366V7.0665H6.66699V6.2665ZM4.58069 6.86543C5.33133 5.55589 6.53373 4.56502 7.96259 4.07849L7.70473 3.32119C6.09158 3.87047 4.73408 4.98914 3.88663 6.46758L4.58069 6.86543ZM7.48178 3.50963C6.96439 4.46679 6.5794 5.49583 6.28181 6.55865L7.05218 6.77436C7.33792 5.75384 7.70292 4.78289 8.18554 3.89004L7.48178 3.50963ZM4.23366 13.7332H6.66699V12.9332H4.23366V13.7332ZM6.28181 13.441C6.5794 14.5038 6.96439 15.5329 7.48178 16.49L8.18554 16.1096C7.70292 15.2168 7.33792 14.2458 7.05218 13.2253L6.28181 13.441ZM7.96411 15.9217C6.53727 15.4295 5.33573 14.4393 4.57989 13.1329L3.88743 13.5335C4.73966 15.0065 6.09442 16.123 7.70321 16.678L7.96411 15.9217ZM3.93838 11.5695C3.81141 11.0616 3.73366 10.5362 3.73366 9.99984H2.93366C2.93366 10.6134 3.02258 11.2048 3.16227 11.7635L3.93838 11.5695ZM3.73366 9.99984C3.73366 9.46345 3.81141 8.93808 3.93838 8.43018L3.16227 8.23616C3.02258 8.79492 2.93366 9.38622 2.93366 9.99984H3.73366ZM3.55033 8.73317H6.36699V7.93317H3.55033V8.73317ZM5.9699 8.28504C5.90236 8.84224 5.85033 9.41017 5.85033 9.99984H6.65033C6.65033 9.45617 6.69829 8.9241 6.76409 8.3813L5.9699 8.28504ZM5.85033 9.99984C5.85033 10.5895 5.90236 11.1574 5.9699 11.7146L6.76409 11.6184C6.69829 11.0756 6.65033 10.5435 6.65033 9.99984H5.85033ZM9.67135 3.58571C10.3415 4.55453 10.8793 5.63204 11.2075 6.77675L11.9765 6.55626C11.6214 5.31764 11.0425 4.16181 10.3293 3.13063L9.67135 3.58571ZM11.592 6.2665H8.40866V7.0665H11.592V6.2665ZM8.79317 6.77675C9.12137 5.63204 9.6592 4.55453 10.3293 3.58571L9.67135 3.13063C8.95812 4.16181 8.37928 5.31764 8.02415 6.55626L8.79317 6.77675ZM15.767 6.2665H13.3087V7.0665H15.767V6.2665ZM13.6965 6.5685C13.4277 5.50473 13.0296 4.47787 12.5112 3.51085L11.8061 3.88883C12.2937 4.7983 12.668 5.76404 12.9208 6.7645L13.6965 6.5685ZM12.0291 4.07827C13.4704 4.57177 14.6687 5.56645 15.4207 6.86675L16.1133 6.46625C15.2652 4.99989 13.9136 3.8779 12.2882 3.3214L12.0291 4.07827ZM10.0003 1.2665C5.1703 1.2665 1.26699 5.19637 1.26699 9.99984H2.06699C2.06699 5.63664 5.61369 2.0665 10.0003 2.0665V1.2665ZM1.26699 9.99984C1.26699 12.3161 2.18711 14.5374 3.82493 16.1752L4.39061 15.6096C2.90282 14.1218 2.06699 12.1039 2.06699 9.99984H1.26699ZM3.82493 16.1752C4.63589 16.9862 5.59865 17.6295 6.65822 18.0684L6.96437 17.3293C6.00185 16.9306 5.12729 16.3462 4.39061 15.6096L3.82493 16.1752ZM6.65822 18.0684C7.7178 18.5073 8.85345 18.7332 10.0003 18.7332V17.9332C8.95851 17.9332 7.92689 17.728 6.96437 17.3293L6.65822 18.0684ZM10.0003 18.7332C12.3165 18.7332 14.5379 17.8131 16.1757 16.1752L15.61 15.6096C14.1223 17.0973 12.1044 17.9332 10.0003 17.9332V18.7332ZM16.1757 16.1752C17.8135 14.5374 18.7337 12.3161 18.7337 9.99984H17.9337C17.9337 12.1039 17.0978 14.1218 15.61 15.6096L16.1757 16.1752ZM18.7337 9.99984C18.7337 8.85296 18.5078 7.71731 18.0689 6.65773L17.3298 6.96388C17.7285 7.9264 17.9337 8.95802 17.9337 9.99984H18.7337ZM18.0689 6.65773C17.63 5.59816 16.9867 4.6354 16.1757 3.82444L15.61 4.39012C16.3467 5.1268 16.9311 6.00137 17.3298 6.96388L18.0689 6.65773ZM16.1757 3.82444C15.3648 3.01347 14.402 2.37018 13.3424 1.93129L13.0363 2.67039C13.9988 3.06908 14.8734 3.65345 15.61 4.39012L16.1757 3.82444ZM13.3424 1.93129C12.2829 1.4924 11.1472 1.2665 10.0003 1.2665V2.0665C11.0421 2.0665 12.0738 2.27171 13.0363 2.67039L13.3424 1.93129Z" fill="white" mask="url(#path-1-inside-1_704_18895)"/>
</svg>
