<svg width="20" height="20" viewBox="0 0 20 20" fill="none" xmlns="http://www.w3.org/2000/svg">
<path d="M6.66667 5.00033V3.43783C6.66667 2.96817 6.85324 2.51775 7.18533 2.18566C7.51743 1.85356 7.96785 1.66699 8.4375 1.66699H11.5625C12.0322 1.66699 12.4826 1.85356 12.8147 2.18566C13.1468 2.51775 13.3333 2.96817 13.3333 3.43783V5.00033H14.8958C15.5865 5.00033 16.2489 5.27469 16.7373 5.76307C17.2256 6.25144 17.5 6.91382 17.5 7.60449V14.0628C17.5 14.7535 17.2256 15.4159 16.7373 15.9042C16.2489 16.3926 15.5865 16.667 14.8958 16.667H5.10417C4.4135 16.667 3.75112 16.3926 3.26274 15.9042C2.77437 15.4159 2.5 14.7535 2.5 14.0628V7.60449C2.5 6.91382 2.77437 6.25144 3.26274 5.76307C3.75112 5.27469 4.4135 5.00033 5.10417 5.00033H6.66667ZM7.70833 3.43783V5.00033H12.2917V3.43783C12.2917 3.34207 12.2728 3.24725 12.2362 3.15879C12.1995 3.07032 12.1458 2.98994 12.0781 2.92223C12.0104 2.85452 11.93 2.80081 11.8415 2.76416C11.7531 2.72752 11.6583 2.70866 11.5625 2.70866H8.4375C8.24411 2.70866 8.05865 2.78548 7.9219 2.92223C7.78516 3.05897 7.70833 3.24444 7.70833 3.43783ZM16.4583 7.60449C16.4583 7.19009 16.2937 6.79266 16.0007 6.49964C15.7077 6.20661 15.3102 6.04199 14.8958 6.04199H5.10417C4.68977 6.04199 4.29234 6.20661 3.99931 6.49964C3.70629 6.79266 3.54167 7.19009 3.54167 7.60449V9.06283C3.54167 9.47723 3.70629 9.87465 3.99931 10.1677C4.29234 10.4607 4.68977 10.6253 5.10417 10.6253H8.33333V10.417C8.33333 10.196 8.42113 9.98402 8.57741 9.82774C8.73369 9.67146 8.94565 9.58366 9.16667 9.58366H10.8333C11.0543 9.58366 11.2663 9.67146 11.4226 9.82774C11.5789 9.98402 11.6667 10.196 11.6667 10.417V10.6253H14.8958C15.3102 10.6253 15.7077 10.4607 16.0007 10.1677C16.2937 9.87465 16.4583 9.47723 16.4583 9.06283V7.60449ZM5.10417 11.667C4.54057 11.6678 3.99204 11.485 3.54167 11.1462V14.0628C3.54167 14.4772 3.70629 14.8747 3.99931 15.1677C4.29234 15.4607 4.68977 15.6253 5.10417 15.6253H14.8958C15.3102 15.6253 15.7077 15.4607 16.0007 15.1677C16.2937 14.8747 16.4583 14.4772 16.4583 14.0628V11.1462C16.008 11.485 15.4594 11.6678 14.8958 11.667H11.6667V12.0837C11.6667 12.3047 11.5789 12.5166 11.4226 12.6729C11.2663 12.8292 11.0543 12.917 10.8333 12.917H9.16667C8.94565 12.917 8.73369 12.8292 8.57741 12.6729C8.42113 12.5166 8.33333 12.3047 8.33333 12.0837V11.667H5.10417Z" fill="#AC00E6"/>
</svg>
