<svg width="40" height="40" viewBox="0 0 40 40" fill="none" xmlns="http://www.w3.org/2000/svg">
<circle cx="20" cy="20" r="20" fill="url(#paint0_linear_4633_995)"/>
<path d="M14.2555 19.8625L16.1355 20.4892C17.3782 20.9025 17.9982 21.1105 18.4435 21.5559C18.8888 22.0012 19.0968 22.6225 19.5102 23.8625L20.1368 25.7425C21.1822 28.8812 21.7048 30.4492 22.6662 30.4492C23.6262 30.4492 24.1502 28.8812 25.1955 25.7425L28.9795 14.3932C29.7155 12.1852 30.0835 11.0812 29.5008 10.4985C28.9182 9.91587 27.8142 10.2839 25.6075 11.0185L14.2542 14.8052C11.1195 15.8492 9.54883 16.3719 9.54883 17.3332C9.54883 18.2932 11.1182 18.8172 14.2555 19.8625Z" fill="white"/>
<path d="M14.2555 19.8625L16.1355 20.4892C17.3782 20.9025 17.9982 21.1105 18.4435 21.5559C18.8888 22.0012 19.0968 22.6225 19.5102 23.8625L20.1368 25.7425C21.1822 28.8812 21.7048 30.4492 22.6662 30.4492C23.6262 30.4492 24.1502 28.8812 25.1955 25.7425L28.9795 14.3932C29.7155 12.1852 30.0835 11.0812 29.5008 10.4985C28.9182 9.91587 27.8142 10.2839 25.6075 11.0185L14.2542 14.8052C11.1195 15.8492 9.54883 16.3719 9.54883 17.3332C9.54883 18.2932 11.1182 18.8172 14.2555 19.8625Z" fill="#000EF8"/>
<path d="M16.7031 22.4561L13.9538 21.5401C13.7614 21.476 13.557 21.4566 13.3559 21.4834C13.1549 21.5102 12.9627 21.5825 12.7938 21.6948L11.3405 22.6628C11.1684 22.7774 11.0334 22.9395 10.9518 23.1295C10.8702 23.3194 10.8456 23.529 10.8809 23.7327C10.9162 23.9364 11.01 24.1254 11.1507 24.2768C11.2915 24.4282 11.4732 24.5354 11.6738 24.5854L14.2805 25.2361C14.3978 25.2654 14.5049 25.326 14.5904 25.4115C14.6759 25.497 14.7365 25.6041 14.7658 25.7214L15.4165 28.3281C15.4665 28.5287 15.5737 28.7104 15.7251 28.8512C15.8765 28.992 16.0656 29.0857 16.2692 29.121C16.4729 29.1563 16.6825 29.1317 16.8724 29.0501C17.0624 28.9685 17.2245 28.8335 17.3391 28.6614L18.3071 27.2081C18.4194 27.0392 18.4917 26.847 18.5185 26.646C18.5453 26.445 18.5259 26.2405 18.4618 26.0481L17.5458 23.2988C17.4803 23.1026 17.3701 22.9243 17.2239 22.7781C17.0776 22.6318 16.8993 22.5216 16.7031 22.4561Z" fill="#AC00E6"/>
<defs>
<linearGradient id="paint0_linear_4633_995" x1="5" y1="6.25" x2="33.75" y2="35.625" gradientUnits="userSpaceOnUse">
<stop stop-color="#D9DBFF"/>
<stop offset="1" stop-color="#EBACFF"/>
</linearGradient>
</defs>
</svg>
