<svg width="20" height="20" viewBox="0 0 20 20" fill="none" xmlns="http://www.w3.org/2000/svg">
<path d="M12.5007 14.1667V15.0001C12.5007 15.6631 12.2373 16.299 11.7684 16.7678C11.2996 17.2367 10.6637 17.5001 10.0007 17.5001C9.33761 17.5001 8.70172 17.2367 8.23288 16.7678C7.76404 16.299 7.50065 15.6631 7.50065 15.0001V14.1667M12.5007 14.1667H7.50065M12.5007 14.1667H15.834C16.055 14.1667 16.267 14.0789 16.4232 13.9227C16.5795 13.7664 16.6673 13.5544 16.6673 13.3334V12.8451C16.6673 12.6241 16.5794 12.4121 16.4232 12.2559L15.9982 11.8309C15.9461 11.779 15.9048 11.7173 15.8766 11.6494C15.8484 11.5814 15.8339 11.5086 15.834 11.4351V8.3334C15.834 8.18673 15.829 8.0409 15.8173 7.89673M7.50065 14.1667H4.16732C3.9463 14.1667 3.73434 14.0789 3.57806 13.9227C3.42178 13.7664 3.33398 13.5544 3.33398 13.3334V12.8451C3.33403 12.6241 3.42186 12.4121 3.57815 12.2559L4.00315 11.8301C4.05517 11.7783 4.09645 11.7167 4.12463 11.6489C4.1528 11.5812 4.16731 11.5085 4.16732 11.4351V8.3334C4.16714 7.42146 4.38077 6.52218 4.79106 5.70776C5.20136 4.89333 5.79688 4.18644 6.52983 3.64384C7.26278 3.10124 8.11273 2.73804 9.01146 2.5834C9.9102 2.42876 10.8327 2.48698 11.7048 2.7534M15.8173 7.89673C16.2355 7.65806 16.5969 7.33164 16.8769 6.93993C17.1568 6.54821 17.3486 6.1005 17.439 5.6276C17.5294 5.1547 17.5162 4.66783 17.4005 4.20048C17.2848 3.73314 17.0692 3.29641 16.7685 2.92035C16.4679 2.54429 16.0893 2.23782 15.6589 2.02202C15.2285 1.80623 14.7565 1.68623 14.2753 1.67029C13.7941 1.65434 13.3152 1.74283 12.8714 1.92966C12.4277 2.11649 12.0297 2.39806 11.7048 2.7534M15.8173 7.89673C15.1274 8.29055 14.3194 8.425 13.5391 8.27585C12.7588 8.1267 12.0574 7.70376 11.5613 7.08323C11.0652 6.46271 10.8071 5.68541 10.8334 4.8914C10.8597 4.0974 11.1688 3.33972 11.7048 2.7534M11.7048 2.7534H11.7065" stroke="#5C5C5C" stroke-width="1.4" stroke-linecap="round" stroke-linejoin="round"/>
</svg>
