<svg width="21" height="20" viewBox="0 0 21 20" fill="none" xmlns="http://www.w3.org/2000/svg">
<path d="M9.50185 2.43939C9.7832 2.20894 10.1357 2.08301 10.4994 2.08301C10.863 2.08301 11.2155 2.20894 11.4969 2.43939L16.9864 6.91523C17.1732 7.06837 17.3236 7.26113 17.4268 7.47955C17.5299 7.69798 17.5831 7.9366 17.5827 8.17814V16.2969C17.5827 17.1915 16.8694 17.9165 15.9889 17.9165H13.7598C12.8794 17.9165 12.166 17.1915 12.166 16.2969V12.4527C12.166 12.1544 11.9285 11.9127 11.6348 11.9127H9.36393C9.0706 11.9127 8.83268 12.1544 8.83268 12.4527V16.2969C8.83268 17.1915 8.11935 17.9165 7.23893 17.9165H5.00977C4.12977 17.9165 3.41602 17.1915 3.41602 16.2969V8.17814C3.41557 7.9366 3.46883 7.69798 3.57195 7.47955C3.67508 7.26113 3.82548 7.06837 4.01227 6.91523L9.50185 2.43939ZM10.8319 3.28148C10.738 3.20471 10.6206 3.16276 10.4994 3.16276C10.3781 3.16276 10.2607 3.20471 10.1669 3.28148L4.67727 7.75689C4.61498 7.80798 4.56484 7.87228 4.53046 7.94514C4.49609 8.018 4.47835 8.09758 4.47852 8.17814V16.2969C4.47852 16.5952 4.71602 16.8369 5.00977 16.8369H7.23893C7.53227 16.8369 7.77019 16.5952 7.77019 16.2969V12.4527C7.77019 11.5581 8.48393 10.8331 9.36393 10.8331H11.6348C12.5148 10.8331 13.2285 11.5581 13.2285 12.4527V16.2969C13.2285 16.5952 13.466 16.8369 13.7598 16.8369H15.9889C16.2823 16.8369 16.5202 16.5952 16.5202 16.2969V8.17814C16.5204 8.09763 16.5027 8.01809 16.4683 7.94529C16.4339 7.87249 16.3838 7.80828 16.3214 7.75731L10.8319 3.28148Z" fill="#5C5C5C"/>
</svg>
