<svg width="21" height="20" viewBox="0 0 21 20" fill="none" xmlns="http://www.w3.org/2000/svg">
<path fill-rule="evenodd" clip-rule="evenodd" d="M6.95768 6.24967C6.95768 5.78458 7.04929 5.32403 7.22728 4.89434C7.40526 4.46464 7.66614 4.07421 7.99501 3.74534C8.32389 3.41646 8.71432 3.15559 9.14401 2.9776C9.57371 2.79962 10.0343 2.70801 10.4993 2.70801C10.9644 2.70801 11.425 2.79962 11.8547 2.9776C12.2844 3.15559 12.6748 3.41646 13.0037 3.74534C13.3326 4.07421 13.5934 4.46464 13.7714 4.89434C13.9494 5.32403 14.041 5.78458 14.041 6.24967C14.041 7.18898 13.6679 8.08982 13.0037 8.75401C12.3395 9.4182 11.4387 9.79134 10.4993 9.79134C9.56004 9.79134 8.6592 9.4182 7.99501 8.75401C7.33082 8.08982 6.95768 7.18898 6.95768 6.24967ZM10.4993 3.95801C9.89156 3.95801 9.30867 4.19945 8.8789 4.62922C8.44913 5.05899 8.20768 5.64189 8.20768 6.24967C8.20768 6.85746 8.44913 7.44036 8.8789 7.87013C9.30867 8.2999 9.89156 8.54134 10.4993 8.54134C11.1071 8.54134 11.69 8.2999 12.1198 7.87013C12.5496 7.44036 12.791 6.85746 12.791 6.24967C12.791 5.64189 12.5496 5.05899 12.1198 4.62922C11.69 4.19945 11.1071 3.95801 10.4993 3.95801ZM7.16602 12.2913C6.66873 12.2913 6.19182 12.4889 5.84019 12.8405C5.48856 13.1921 5.29102 13.6691 5.29102 14.1663V15.1563C5.29102 15.1713 5.30185 15.1847 5.31685 15.1872C8.74935 15.7472 12.2502 15.7472 15.6818 15.1872C15.6891 15.186 15.6957 15.1822 15.7005 15.1766C15.7052 15.1709 15.7078 15.1637 15.7077 15.1563V14.1663C15.7077 13.6691 15.5101 13.1921 15.1585 12.8405C14.8069 12.4889 14.33 12.2913 13.8327 12.2913H13.5493C13.527 12.2912 13.5048 12.2945 13.4835 12.3013L12.7627 12.5372C11.292 13.0173 9.70671 13.0173 8.23602 12.5372L7.51435 12.3013C7.49361 12.2947 7.47196 12.2913 7.45018 12.2913H7.16602ZM4.04102 14.1663C4.04102 13.3375 4.37026 12.5427 4.95631 11.9566C5.54236 11.3706 6.33721 11.0413 7.16602 11.0413H7.44935C7.60352 11.0413 7.75685 11.0663 7.90268 11.113L8.62435 11.3488C9.84272 11.7465 11.156 11.7465 12.3743 11.3488L13.096 11.113C13.2418 11.0655 13.3952 11.0413 13.5485 11.0413H13.8327C14.6615 11.0413 15.4563 11.3706 16.0424 11.9566C16.6284 12.5427 16.9577 13.3375 16.9577 14.1663V15.1563C16.9577 15.7847 16.5027 16.3197 15.8827 16.4205C12.3174 17.0025 8.68131 17.0025 5.11602 16.4205C4.81595 16.3717 4.54305 16.2177 4.34611 15.9861C4.14916 15.7545 4.04102 15.4604 4.04102 15.1563V14.1663Z" fill="#5C5C5C"/>
</svg>
