<svg width="20" height="20" viewBox="0 0 20 20" fill="none" xmlns="http://www.w3.org/2000/svg">
<path d="M7.4987 10.0003C7.4987 10.5529 7.2792 11.0828 6.8885 11.4735C6.4978 11.8642 5.9679 12.0837 5.41536 12.0837C4.86283 12.0837 4.33293 11.8642 3.94223 11.4735C3.55152 11.0828 3.33203 10.5529 3.33203 10.0003C3.33203 9.44779 3.55152 8.91789 3.94223 8.52719C4.33293 8.13649 4.86283 7.91699 5.41536 7.91699C5.9679 7.91699 6.4978 8.13649 6.8885 8.52719C7.2792 8.91789 7.4987 9.44779 7.4987 10.0003Z" stroke="#AC00E6" stroke-width="1.2"/>
<path d="M11.6667 5.41699L7.5 8.33366M11.6667 14.5837L7.5 11.667" stroke="#AC00E6" stroke-width="1.2" stroke-linecap="round"/>
<path d="M15.8307 15.4167C15.8307 15.9692 15.6112 16.4991 15.2205 16.8898C14.8298 17.2805 14.2999 17.5 13.7474 17.5C13.1949 17.5 12.665 17.2805 12.2743 16.8898C11.8836 16.4991 11.6641 15.9692 11.6641 15.4167C11.6641 14.8641 11.8836 14.3342 12.2743 13.9435C12.665 13.5528 13.1949 13.3333 13.7474 13.3333C14.2999 13.3333 14.8298 13.5528 15.2205 13.9435C15.6112 14.3342 15.8307 14.8641 15.8307 15.4167ZM15.8307 4.58333C15.8307 5.13587 15.6112 5.66577 15.2205 6.05647C14.8298 6.44717 14.2999 6.66667 13.7474 6.66667C13.1949 6.66667 12.665 6.44717 12.2743 6.05647C11.8836 5.66577 11.6641 5.13587 11.6641 4.58333C11.6641 4.0308 11.8836 3.50089 12.2743 3.11019C12.665 2.71949 13.1949 2.5 13.7474 2.5C14.2999 2.5 14.8298 2.71949 15.2205 3.11019C15.6112 3.50089 15.8307 4.0308 15.8307 4.58333Z" stroke="#AC00E6" stroke-width="1.2"/>
</svg>
